P3
64 64
255
0 0 0
0 0 0
0 0 0
0 0 0
0 0 0
0 0 0
0 0 0
0 0 0
0 0 0
0 0 0
0 0 0
0 0 0
0 0 0
0 0 0
0 0 0
0 0 0
0 0 0
0 0 0
0 0 0
0 0 0
0 0 0
0 0 0
0 0 0
0 0 0
0 0 0
0 0 0
0 0 0
0 0 0
0 0 0
0 0 0
0 0 0
0 0 0
0 0 0
0 0 0
0 0 0
0 0 0
0 0 0
0 0 0
0 0 0
0 0 0
0 0 0
0 0 0
0 0 0
0 0 0
0 0 0
0 0 0
0 0 0
0 0 0
0 0 0
0 0 0
0 0 0
0 0 0
0 0 0
0 0 0
0 0 0
0 0 0
0 0 0
0 0 0
0 0 0
0 0 0
0 0 0
0 0 0
0 0 0
0 0 0
0 0 0
0 0 0
0 0 0
0 0 0
0 0 0
0 0 0
0 0 0
0 0 0
0 0 0
0 0 0
0 0 0
0 0 0
0 0 0
0 0 0
0 0 0
0 0 0
0 0 0
0 0 0
0 0 0
0 0 0
0 0 0
0 0 0
0 0 0
0 0 0
0 0 0
0 0 0
0 0 0
0 0 0
0 0 0
0 0 0
0 0 0
0 0 0
0 0 0
0 0 0
0 0 0
0 0 0
0 0 0
0 0 0
0 0 0
0 0 0
0 0 0
0 0 0
0 0 0
0 0 0
0 0 0
0 0 0
0 0 0
0 0 0
0 0 0
0 0 0
0 0 0
0 0 0
0 0 0
0 0 0
0 0 0
0 0 0
0 0 0
0 0 0
0 0 0
0 0 0
0 0 0
0 0 0
0 0 0
0 0 0
0 0 0
0 0 0
0 0 0
0 0 0
0 0 0
0 0 0
0 0 0
0 0 0
0 0 0
0 0 0
0 0 0
0 0 0
0 0 0
0 0 0
0 0 0
0 0 0
0 0 0
0 0 0
0 0 0
0 0 0
0 0 0
0 0 0
0 0 0
0 0 0
0 0 0
0 0 0
0 0 0
0 0 0
0 0 0
0 0 0
0 0 0
0 0 0
0 0 0
0 0 0
0 0 0
0 0 0
0 0 0
0 0 0
0 0 0
0 0 0
0 0 0
0 0 0
0 0 0
0 0 0
0 0 0
0 0 0
0 0 0
0 0 0
0 0 0
0 0 0
0 0 0
0 0 0
0 0 0
0 0 0
0 0 0
0 0 0
0 0 0
0 0 0
0 0 0
0 0 0
0 0 0
0 0 0
0 0 0
0 0 0
0 0 0
0 0 0
0 0 0
0 0 0
0 0 0
0 0 0
0 0 0
0 0 0
0 0 0
0 0 0
0 0 0
0 0 0
0 0 0
0 0 0
0 0 0
0 0 0
0 0 0
0 0 0
0 0 0
0 0 0
0 0 0
0 0 0
0 0 0
0 0 0
0 0 0
0 0 0
0 0 0
0 0 0
0 0 0
0 0 0
0 0 0
0 0 0
0 0 0
0 0 0
0 0 0
0 0 0
0 0 0
0 0 0
0 0 0
0 0 0
0 0 0
0 0 0
0 0 0
0 0 0
0 0 0
0 0 0
0 0 0
0 0 0
0 0 0
0 0 0
0 0 0
0 0 0
0 0 0
0 0 0
0 0 0
0 0 0
0 0 0
0 0 0
0 0 0
0 0 0
0 0 0
0 0 0
0 0 0
0 0 0
0 0 0
0 0 0
0 0 0
0 0 0
0 0 0
0 0 0
0 0 0
0 0 0
0 0 0
0 0 0
0 0 0
0 0 0
0 0 0
0 0 0
0 0 0
0 0 0
0 0 0
0 0 0
0 0 0
0 0 0
0 0 0
0 0 0
0 0 0
0 0 0
0 0 0
0 0 0
0 0 0
0 0 0
0 0 0
0 0 0
0 0 0
0 0 0
0 0 0
0 0 0
0 0 0
0 0 0
0 0 0
0 0 0
0 0 0
0 0 0
0 0 0
0 0 0
0 0 0
0 0 0
0 0 0
0 0 0
0 0 0
0 0 0
0 0 0
0 0 0
0 0 0
0 0 0
0 0 0
0 0 0
0 0 0
0 0 0
0 0 0
0 0 0
0 0 0
0 0 0
0 0 0
0 0 0
0 0 0
0 0 0
0 0 0
0 0 0
0 0 0
0 0 0
0 0 0
0 0 0
0 0 0
0 0 0
0 0 0
0 0 0
0 0 0
0 0 0
0 0 0
0 0 0
0 0 0
0 0 0
0 0 0
0 0 0
0 0 0
0 0 0
0 0 0
0 0 0
0 0 0
0 0 0
0 0 0
0 0 0
0 0 0
0 0 0
0 0 0
0 0 0
0 0 0
0 0 0
0 0 0
0 0 0
0 0 0
0 0 0
0 0 0
0 0 0
0 0 0
0 0 0
0 0 0
0 0 0
0 0 0
0 0 0
0 0 0
0 0 0
0 0 0
0 0 0
0 0 0
0 0 0
0 0 0
0 0 0
0 0 0
0 0 0
0 0 0
0 0 0
0 0 0
0 0 0
0 0 0
0 0 0
0 0 0
0 0 0
0 0 0
0 0 0
0 0 0
0 0 0
0 0 0
0 0 0
0 0 0
0 0 0
0 0 0
0 0 0
0 0 0
0 0 0
0 0 0
0 0 0
0 0 0
0 0 0
0 0 0
0 0 0
0 0 0
0 0 0
0 0 0
0 0 0
0 0 0
0 0 0
0 0 0
0 0 0
0 0 0
0 0 0
0 0 0
0 0 0
0 0 0
0 0 0
0 0 0
0 0 0
0 0 0
0 0 0
0 0 0
0 0 0
0 0 0
0 0 0
0 0 0
0 0 0
0 0 0
0 0 0
0 0 0
0 0 0
0 0 0
0 0 0
0 0 0
0 0 0
0 0 0
0 0 0
0 0 0
0 0 0
0 0 0
0 0 0
0 0 0
0 0 0
0 0 0
0 0 0
0 0 0
0 0 0
0 0 0
0 0 0
0 0 0
0 0 0
0 0 0
0 0 0
0 0 0
0 0 0
0 0 0
0 0 0
0 0 0
0 0 0
0 0 0
0 0 0
0 0 0
0 0 0
0 0 0
0 0 0
0 0 0
0 0 0
0 0 0
0 0 0
0 0 0
0 0 0
0 0 0
0 0 0
0 0 0
0 0 0
0 0 0
0 0 0
0 0 0
0 0 0
0 0 0
0 0 0
0 0 0
0 0 0
0 0 0
0 0 0
0 0 0
0 0 0
0 0 0
0 0 0
0 0 0
0 0 0
0 0 0
0 0 0
0 0 0
0 0 0
0 0 0
0 0 0
0 0 0
0 0 0
0 0 0
0 0 0
0 0 0
0 0 0
0 0 0
0 0 0
0 0 0
0 0 0
0 0 0
0 0 0
0 0 0
0 0 0
0 0 0
0 0 0
0 0 0
0 0 0
0 0 0
0 0 0
0 0 0
0 0 0
0 0 0
0 0 0
0 0 0
0 0 0
0 0 0
0 0 0
0 0 0
0 0 0
0 0 0
0 0 0
0 0 0
0 0 0
0 0 0
0 0 0
0 0 0
0 0 0
0 0 0
0 0 0
0 0 0
0 0 0
0 0 0
0 0 0
0 0 0
0 0 0
0 0 0
0 0 0
0 0 0
0 0 0
0 0 0
0 0 0
0 0 0
0 0 0
0 0 0
0 0 0
0 0 0
0 0 0
0 0 0
0 0 0
0 0 0
0 0 0
0 0 0
0 0 0
0 0 0
0 0 0
0 0 0
0 0 0
0 0 0
0 0 0
0 0 0
0 0 0
0 0 0
0 0 0
0 0 0
0 0 0
0 0 0
0 0 0
0 0 0
0 0 0
0 0 0
0 0 0
0 0 0
0 0 0
0 0 0
0 0 0
0 0 0
0 0 0
0 0 0
0 0 0
0 0 0
0 0 0
0 0 0
0 0 0
0 0 0
0 0 0
0 0 0
0 0 0
0 0 0
0 0 0
0 0 0
0 0 0
0 0 0
0 0 0
0 0 0
0 0 0
0 0 0
0 0 0
0 0 0
0 0 0
0 0 0
0 0 0
0 0 0
0 0 0
0 0 0
0 0 0
0 0 0
0 0 0
0 0 0
0 0 0
0 0 0
0 0 0
0 0 0
0 0 0
0 0 0
0 0 0
0 0 0
0 0 0
0 0 0
0 0 0
0 0 0
0 0 0
0 0 0
0 0 0
0 0 0
0 0 0
0 0 0
0 0 0
0 0 0
0 0 0
0 0 0
0 0 0
0 0 0
0 0 0
0 0 0
0 0 0
0 0 0
0 0 0
0 0 0
0 0 0
0 0 0
0 0 0
0 0 0
0 0 0
0 0 0
0 0 0
0 0 0
0 0 0
0 0 0
0 0 0
0 0 0
0 0 0
0 0 0
0 0 0
0 0 0
0 0 0
0 0 0
0 0 0
0 0 0
0 0 0
0 0 0
0 0 0
0 0 0
0 0 0
0 0 0
0 0 0
0 0 0
0 0 0
0 0 0
0 0 0
0 0 0
0 0 0
0 0 0
0 0 0
0 0 0
0 0 0
0 0 0
0 0 0
0 0 0
0 0 0
0 0 0
0 0 0
0 0 0
0 0 0
0 0 0
0 0 0
0 0 0
0 0 0
0 0 0
0 0 0
0 0 0
0 0 0
0 0 0
0 0 0
0 0 0
0 0 0
0 0 0
0 0 0
0 0 0
0 0 0
0 0 0
0 0 0
0 0 0
0 0 0
0 0 0
0 0 0
0 0 0
0 0 0
0 0 0
0 0 0
0 0 0
0 0 0
0 0 0
0 0 0
0 0 0
0 0 0
0 0 0
0 0 0
0 0 0
0 0 0
0 0 0
0 0 0
0 0 0
0 0 0
0 0 0
0 0 0
0 0 0
0 0 0
0 0 0
0 0 0
0 0 0
0 0 0
0 0 0
0 0 0
0 0 0
0 0 0
0 0 0
0 0 0
0 0 0
0 0 0
0 0 0
0 0 0
0 0 0
0 0 0
0 0 0
0 0 0
0 0 0
0 0 0
0 0 0
0 0 0
0 0 0
0 0 0
0 0 0
0 0 0
0 0 0
0 0 0
0 0 0
0 0 0
0 0 0
0 0 0
0 0 0
0 0 0
0 0 0
0 0 0
0 0 0
0 0 0
0 0 0
0 0 0
0 0 0
0 0 0
0 0 0
0 0 0
0 0 0
0 0 0
0 0 0
0 0 0
0 0 0
0 0 0
0 0 0
0 0 0
0 0 0
0 0 0
0 0 0
0 0 0
0 0 0
0 0 0
0 0 0
0 0 0
0 0 0
0 0 0
0 0 0
0 0 0
0 0 0
0 0 0
0 0 0
0 0 0
0 0 0
0 0 0
0 0 0
0 0 0
0 0 0
0 0 0
0 0 0
0 0 0
0 0 0
0 0 0
0 0 0
0 0 0
0 0 0
0 0 0
0 0 0
0 0 0
0 0 0
0 0 0
0 0 0
0 0 0
0 0 0
0 0 0
0 0 0
0 0 0
0 0 0
0 0 0
0 0 0
0 0 0
0 0 0
0 0 0
0 0 0
0 0 0
0 0 0
0 0 0
0 0 0
0 0 0
0 0 0
0 0 0
0 0 0
0 0 0
0 0 0
0 0 0
0 0 0
0 0 0
0 0 0
0 0 0
0 0 0
0 0 0
0 0 0
0 0 0
0 0 0
0 0 0
0 0 0
0 0 0
0 0 0
0 0 0
0 0 0
0 0 0
0 0 0
0 0 0
0 0 0
0 0 0
0 0 0
0 0 0
0 0 0
0 0 0
0 0 0
0 0 0
0 0 0
0 0 0
0 0 0
0 0 0
0 0 0
0 0 0
0 0 0
0 0 0
0 0 0
0 0 0
0 0 0
0 0 0
0 0 0
0 0 0
0 0 0
0 0 0
0 0 0
0 0 0
0 0 0
0 0 0
0 0 0
0 0 0
0 0 0
0 0 0
0 0 0
0 0 0
0 0 0
0 0 0
0 0 0
0 0 0
0 0 0
0 0 0
0 0 0
0 0 0
0 0 0
0 0 0
0 0 0
0 0 0
0 0 0
0 0 0
0 0 0
0 0 0
0 0 0
0 0 0
0 0 0
0 0 0
0 0 0
0 0 0
0 0 0
0 0 0
0 0 0
0 0 0
0 0 0
0 0 0
0 0 0
0 0 0
0 0 0
0 0 0
0 0 0
0 0 0
0 0 0
0 0 0
0 0 0
0 0 0
0 0 0
0 0 0
0 0 0
0 0 0
0 0 0
0 0 0
0 0 0
0 0 0
0 0 0
0 0 0
0 0 0
0 0 0
0 0 0
0 0 0
0 0 0
0 0 0
0 0 0
0 0 0
0 0 0
0 0 0
0 0 0
0 0 0
0 0 0
0 0 0
0 0 0
0 0 0
0 0 0
0 0 0
0 0 0
0 0 0
0 0 0
0 0 0
0 0 0
0 0 0
0 0 0
0 0 0
0 0 0
0 0 0
0 0 0
0 0 0
0 0 0
0 0 0
0 0 0
0 0 0
0 0 0
0 0 0
0 0 0
0 0 0
0 0 0
0 0 0
0 0 0
0 0 0
0 0 0
0 0 0
0 0 0
0 0 0
0 0 0
0 0 0
0 0 0
0 0 0
0 0 0
0 0 0
0 0 0
0 0 0
0 0 0
0 0 0
0 0 0
0 0 0
0 0 0
0 0 0
0 0 0
0 0 0
0 0 0
0 0 0
0 0 0
0 0 0
0 0 0
0 0 0
0 0 0
0 0 0
0 0 0
0 0 0
0 0 0
0 0 0
0 0 0
0 0 0
0 0 0
0 0 0
0 0 0
0 0 0
0 0 0
0 0 0
0 0 0
0 0 0
0 0 0
0 0 0
0 0 0
0 0 0
0 0 0
0 0 0
0 0 0
0 0 0
0 0 0
0 0 0
0 0 0
0 0 0
0 0 0
0 0 0
0 0 0
0 0 0
0 0 0
0 0 0
0 0 0
0 0 0
0 0 0
0 0 0
0 0 0
0 0 0
0 0 0
0 0 0
0 0 0
0 0 0
0 0 0
0 0 0
0 0 0
0 0 0
0 0 0
0 0 0
0 0 0
0 0 0
0 0 0
0 0 0
0 0 0
0 0 0
0 0 0
0 0 0
0 0 0
0 0 0
0 0 0
0 0 0
0 0 0
0 0 0
0 0 0
0 0 0
0 0 0
0 0 0
0 0 0
0 0 0
0 0 0
0 0 0
0 0 0
0 0 0
0 0 0
0 0 0
0 0 0
0 0 0
0 0 0
0 0 0
0 0 0
0 0 0
0 0 0
0 0 0
0 0 0
0 0 0
0 0 0
0 0 0
0 0 0
0 0 0
0 0 0
0 0 0
0 0 0
0 0 0
0 0 0
0 0 0
0 0 0
0 0 0
0 0 0
0 0 0
0 0 0
0 0 0
0 0 0
0 0 0
0 0 0
0 0 0
0 0 0
0 0 0
0 0 0
0 0 0
0 0 0
0 0 0
0 0 0
0 0 0
0 0 0
0 0 0
0 0 0
0 0 0
0 0 0
0 0 0
0 0 0
0 0 0
0 0 0
0 0 0
0 0 0
0 0 0
0 0 0
0 0 0
0 0 0
0 0 0
0 0 0
0 0 0
0 0 0
0 0 0
0 0 0
0 0 0
0 0 0
0 0 0
0 0 0
0 0 0
0 0 0
0 0 0
0 0 0
0 0 0
0 0 0
0 0 0
0 0 0
0 0 0
0 0 0
0 0 0
0 0 0
0 0 0
0 0 0
0 0 0
0 0 0
0 0 0
0 0 0
0 0 0
0 0 0
0 0 0
0 0 0
0 0 0
0 0 0
0 0 0
0 0 0
0 0 0
0 0 0
0 0 0
0 0 0
0 0 0
0 0 0
0 0 0
0 0 0
0 0 0
0 0 0
0 0 0
0 0 0
0 0 0
0 0 0
0 0 0
0 0 0
0 0 0
0 0 0
0 0 0
0 0 0
0 0 0
0 0 0
0 0 0
0 0 0
0 0 0
0 0 0
0 0 0
0 0 0
0 0 0
0 0 0
0 0 0
0 0 0
0 0 0
0 0 0
0 0 0
0 0 0
0 0 0
0 0 0
0 0 0
0 0 0
0 0 0
0 0 0
0 0 0
0 0 0
0 0 0
0 0 0
0 0 0
0 0 0
0 0 0
0 0 0
0 0 0
0 0 0
0 0 0
0 0 0
0 0 0
0 0 0
0 0 0
0 0 0
0 0 0
0 0 0
0 0 0
0 0 0
0 0 0
0 0 0
0 0 0
0 0 0
0 0 0
0 0 0
0 0 0
0 0 0
0 0 0
0 0 0
0 0 0
0 0 0
0 0 0
0 0 0
0 0 0
0 0 0
0 0 0
0 0 0
0 0 0
0 0 0
0 0 0
0 0 0
0 0 0
0 0 0
0 0 0
0 0 0
0 0 0
0 0 0
0 0 0
0 0 0
0 0 0
0 0 0
0 0 0
0 0 0
0 0 0
0 0 0
0 0 0
0 0 0
0 0 0
0 0 0
0 0 0
0 0 0
0 0 0
0 0 0
0 0 0
0 0 0
0 0 0
0 0 0
0 0 0
0 0 0
0 0 0
0 0 0
0 0 0
0 0 0
0 0 0
0 0 0
0 0 0
0 0 0
0 0 0
0 0 0
0 0 0
0 0 0
0 0 0
0 0 0
0 0 0
0 0 0
0 0 0
0 0 0
0 0 0
0 0 0
0 0 0
0 0 0
0 0 0
0 0 0
0 0 0
0 0 0
0 0 0
0 0 0
0 0 0
0 0 0
0 0 0
0 0 0
0 0 0
0 0 0
0 0 0
0 0 0
0 0 0
0 0 0
0 0 0
0 0 0
0 0 0
0 0 0
0 0 0
0 0 0
0 0 0
0 0 0
0 0 0
0 0 0
0 0 0
0 0 0
0 0 0
0 0 0
0 0 0
0 0 0
0 0 0
0 0 0
0 0 0
0 0 0
0 0 0
0 0 0
0 0 0
0 0 0
0 0 0
0 0 0
0 0 0
0 0 0
0 0 0
0 0 0
0 0 0
0 0 0
0 0 0
0 0 0
0 0 0
0 0 0
0 0 0
0 0 0
0 0 0
0 0 0
0 0 0
0 0 0
0 0 0
0 0 0
0 0 0
0 0 0
0 0 0
0 0 0
0 0 0
0 0 0
0 0 0
0 0 0
0 0 0
0 0 0
0 0 0
0 0 0
0 0 0
0 0 0
0 0 0
0 0 0
0 0 0
0 0 0
0 0 0
0 0 0
0 0 0
0 0 0
0 0 0
0 0 0
0 0 0
0 0 0
0 0 0
0 0 0
0 0 0
0 0 0
0 0 0
0 0 0
0 0 0
0 0 0
0 0 0
0 0 0
0 0 0
0 0 0
0 0 0
0 0 0
0 0 0
0 0 0
0 0 0
0 0 0
0 0 0
0 0 0
0 0 0
0 0 0
0 0 0
0 0 0
0 0 0
0 0 0
0 0 0
0 0 0
0 0 0
0 0 0
0 0 0
0 0 0
0 0 0
0 0 0
0 0 0
0 0 0
0 0 0
0 0 0
0 0 0
0 0 0
0 0 0
0 0 0
0 0 0
0 0 0
0 0 0
0 0 0
0 0 0
0 0 0
0 0 0
0 0 0
0 0 0
0 0 0
0 0 0
0 0 0
0 0 0
0 0 0
0 0 0
0 0 0
0 0 0
0 0 0
0 0 0
0 0 0
0 0 0
0 0 0
0 0 0
0 0 0
0 0 0
0 0 0
0 0 0
0 0 0
0 0 0
0 0 0
0 0 0
0 0 0
0 0 0
0 0 0
0 0 0
0 0 0
0 0 0
0 0 0
0 0 0
0 0 0
0 0 0
0 0 0
0 0 0
0 0 0
0 0 0
0 0 0
0 0 0
0 0 0
0 0 0
0 0 0
0 0 0
0 0 0
0 0 0
0 0 0
0 0 0
0 0 0
0 0 0
0 0 0
0 0 0
0 0 0
0 0 0
0 0 0
0 0 0
0 0 0
0 0 0
0 0 0
0 0 0
0 0 0
0 0 0
0 0 0
0 0 0
0 0 0
0 0 0
0 0 0
0 0 0
0 0 0
0 0 0
0 0 0
0 0 0
0 0 0
0 0 0
0 0 0
0 0 0
0 0 0
0 0 0
0 0 0
0 0 0
0 0 0
0 0 0
0 0 0
0 0 0
0 0 0
0 0 0
0 0 0
0 0 0
0 0 0
0 0 0
0 0 0
0 0 0
0 0 0
0 0 0
0 0 0
0 0 0
0 0 0
0 0 0
0 0 0
0 0 0
0 0 0
0 0 0
0 0 0
0 0 0
0 0 0
0 0 0
0 0 0
0 0 0
0 0 0
0 0 0
0 0 0
0 0 0
0 0 0
0 0 0
0 0 0
0 0 0
0 0 0
0 0 0
0 0 0
0 0 0
0 0 0
0 0 0
0 0 0
0 0 0
0 0 0
0 0 0
0 0 0
0 0 0
0 0 0
0 0 0
0 0 0
0 0 0
0 0 0
0 0 0
0 0 0
0 0 0
0 0 0
0 0 0
0 0 0
0 0 0
0 0 0
0 0 0
0 0 0
0 0 0
0 0 0
0 0 0
0 0 0
0 0 0
0 0 0
0 0 0
0 0 0
0 0 0
0 0 0
0 0 0
0 0 0
0 0 0
0 0 0
0 0 0
0 0 0
0 0 0
0 0 0
0 0 0
0 0 0
0 0 0
0 0 0
0 0 0
0 0 0
0 0 0
0 0 0
0 0 0
0 0 0
0 0 0
0 0 0
0 0 0
0 0 0
0 0 0
0 0 0
0 0 0
0 0 0
0 0 0
0 0 0
0 0 0
0 0 0
0 0 0
0 0 0
0 0 0
0 0 0
0 0 0
0 0 0
0 0 0
0 0 0
0 0 0
0 0 0
0 0 0
0 0 0
0 0 0
0 0 0
0 0 0
0 0 0
0 0 0
0 0 0
255 255 255
243 243 243
231 231 231
247 247 247
219 219 219
239 239 239
0 0 0
0 0 0
0 0 0
0 0 0
0 0 0
0 0 0
0 0 0
0 0 0
0 0 0
0 0 0
0 0 0
0 0 0
0 0 0
0 0 0
0 0 0
0 0 0
0 0 0
0 0 0
0 0 0
0 0 0
0 0 0
0 0 0
0 0 0
0 0 0
0 0 0
0 0 0
0 0 0
0 0 0
0 0 0
0 0 0
0 0 0
0 0 0
0 0 0
0 0 0
0 0 0
0 0 0
0 0 0
0 0 0
0 0 0
0 0 0
0 0 0
0 0 0
0 0 0
0 0 0
0 0 0
0 0 0
0 0 0
0 0 0
0 0 0
0 0 0
0 0 0
0 0 0
0 0 0
0 0 0
0 0 0
0 0 0
219 219 219
219 219 219
219 219 219
227 227 227
223 223 223
207 207 207
215 215 215
219 219 219
235 235 235
219 219 219
0 0 0
0 0 0
0 0 0
0 0 0
0 0 0
0 0 0
0 0 0
0 0 0
0 0 0
0 0 0
0 0 0
0 0 0
0 0 0
0 0 0
0 0 0
0 0 0
0 0 0
0 0 0
0 0 0
0 0 0
0 0 0
0 0 0
0 0 0
0 0 0
0 0 0
0 0 0
0 0 0
0 0 0
0 0 0
0 0 0
0 0 0
0 0 0
0 0 0
0 0 0
0 0 0
0 0 0
251 251 251
251 251 251
247 247 247
243 243 243
0 0 0
0 0 0
0 0 0
0 0 0
0 0 0
0 0 0
0 0 0
0 0 0
0 0 0
0 0 0
0 0 0
0 0 0
0 0 0
223 223 223
199 199 199
207 207 207
219 219 219
227 227 227
199 199 199
175 175 175
215 215 215
199 199 199
183 183 183
187 187 187
179 179 179
0 0 0
0 0 0
0 0 0
0 0 0
0 0 0
0 0 0
0 0 0
0 0 0
0 0 0
0 0 0
0 0 0
0 0 0
0 0 0
0 0 0
0 0 0
0 0 0
0 0 0
0 0 0
0 0 0
0 0 0
0 0 0
243 243 243
223 223 223
231 231 231
247 247 247
239 239 239
0 0 0
0 0 0
0 0 0
0 0 0
0 0 0
0 0 0
0 0 0
207 207 207
231 231 231
211 211 211
191 191 191
211 211 211
227 227 227
199 199 199
227 227 227
0 0 0
0 0 0
0 0 0
0 0 0
0 0 0
0 0 0
0 0 0
0 0 0
0 0 0
0 0 0
195 195 195
203 203 203
199 199 199
191 191 191
179 179 179
175 175 175
191 191 191
195 195 195
179 179 179
175 175 175
159 159 159
195 195 195
179 179 179
195 195 195
0 0 0
0 0 0
0 0 0
0 0 0
0 0 0
0 0 0
0 0 0
0 0 0
0 0 0
0 0 0
0 0 0
0 0 0
0 0 0
0 0 0
0 0 0
0 0 0
0 0 0
0 0 0
0 0 0
187 187 187
195 195 195
199 199 199
203 203 203
203 203 203
191 191 191
203 203 203
199 199 199
0 0 0
0 0 0
0 0 0
0 0 0
219 219 219
183 183 183
183 183 183
203 203 203
191 191 191
175 175 175
187 187 187
219 219 219
207 207 207
183 183 183
0 0 0
0 0 0
0 0 0
0 0 0
0 0 0
0 0 0
0 0 0
0 0 0
151 151 151
199 199 199
167 167 167
147 147 147
167 167 167
143 143 143
163 163 163
163 163 163
199 199 199
171 171 171
159 159 159
199 199 199
155 155 155
127 127 127
183 183 183
0 0 0
0 0 0
0 0 0
0 0 0
0 0 0
0 0 0
0 0 0
0 0 0
0 0 0
0 0 0
0 0 0
0 0 0
0 0 0
0 0 0
0 0 0
0 0 0
0 0 0
0 0 0
175 175 175
175 175 175
215 215 215
171 171 171
191 191 191
151 151 151
155 155 155
179 179 179
175 175 175
195 195 195
0 0 0
0 0 0
0 0 0
183 183 183
171 171 171
147 147 147
171 171 171
143 143 143
159 159 159
143 143 143
155 155 155
179 179 179
143 143 143
0 0 0
0 0 0
0 0 0
0 0 0
0 0 0
0 0 0
0 0 0
0 0 0
127 127 127
187 187 187
179 179 179
147 147 147
135 135 135
171 171 171
187 187 187
151 151 151
147 147 147
163 163 163
175 175 175
155 155 155
151 151 151
175 175 175
159 159 159
131 131 131
0 0 0
0 0 0
0 0 0
0 0 0
0 0 0
0 0 0
0 0 0
0 0 0
0 0 0
0 0 0
0 0 0
0 0 0
0 0 0
0 0 0
0 0 0
0 0 0
0 0 0
167 167 167
163 163 163
143 143 143
167 167 167
155 155 155
139 139 139
131 131 131
107 107 107
127 127 127
115 115 115
0 0 0
0 0 0
0 0 0
127 127 127
155 155 155
151 151 151
159 159 159
187 187 187
127 127 127
163 163 163
131 131 131
135 135 135
135 135 135
0 0 0
0 0 0
0 0 0
0 0 0
0 0 0
0 0 0
0 0 0
0 0 0
127 127 127
151 151 151
163 163 163
147 147 147
163 163 163
171 171 171
123 123 123
167 167 167
147 147 147
115 115 115
139 139 139
135 135 135
175 175 175
179 179 179
151 151 151
131 131 131
0 0 0
0 0 0
0 0 0
0 0 0
0 0 0
0 0 0
0 0 0
0 0 0
0 0 0
0 0 0
0 0 0
0 0 0
0 0 0
0 0 0
0 0 0
0 0 0
0 0 0
119 119 119
143 143 143
111 111 111
131 131 131
135 135 135
99 99 99
103 103 103
127 127 127
103 103 103
127 127 127
0 0 0
0 0 0
0 0 0
111 111 111
131 131 131
131 131 131
143 143 143
115 115 115
115 115 115
111 111 111
119 119 119
131 131 131
99 99 99
0 0 0
0 0 0
0 0 0
0 0 0
0 0 0
0 0 0
0 0 0
0 0 0
143 143 143
119 119 119
103 103 103
103 103 103
151 151 151
119 119 119
127 127 127
143 143 143
143 143 143
111 111 111
115 115 115
139 139 139
135 135 135
91 91 91
111 111 111
91 91 91
0 0 0
0 0 0
0 0 0
0 0 0
0 0 0
0 0 0
0 0 0
0 0 0
255 255 255
255 255 255
255 255 255
255 255 255
255 255 255
255 255 255
255 255 255
255 255 255
255 255 255
107 107 107
87 87 87
95 95 95
83 83 83
99 99 99
67 67 67
115 115 115
75 75 75
83 83 83
67 67 67
255 255 255
255 255 255
255 255 255
115 115 115
99 99 99
103 103 103
87 87 87
135 135 135
87 87 87
59 59 59
75 75 75
91 91 91
91 91 91
255 255 255
255 255 255
255 255 255
255 255 255
255 255 255
255 255 255
255 255 255
255 255 255
119 119 119
111 111 111
99 99 99
99 99 99
119 119 119
139 139 139
103 103 103
99 99 99
111 111 111
119 119 119
123 123 123
87 87 87
103 103 103
107 107 107
107 107 107
103 103 103
255 255 255
255 255 255
255 255 255
255 255 255
255 255 255
255 255 255
255 255 255
255 255 255
255 255 255
255 255 255
255 255 255
255 255 255
255 255 255
255 255 255
255 255 255
255 255 255
255 255 255
103 103 103
67 67 67
71 71 71
59 59 59
71 71 71
71 71 71
39 39 39
51 51 51
47 47 47
39 39 39
255 255 255
255 255 255
255 255 255
67 67 67
63 63 63
91 91 91
75 75 75
83 83 83
79 79 79
79 79 79
87 87 87
59 59 59
55 55 55
255 255 255
255 255 255
255 255 255
255 255 255
251 251 251
255 255 255
255 255 255
251 251 251
99 99 99
103 103 103
103 103 103
95 95 95
119 119 119
79 79 79
91 91 91
87 87 87
79 79 79
99 99 99
87 87 87
87 87 87
107 107 107
95 95 95
87 87 87
87 87 87
255 255 255
255 255 255
255 255 255
251 251 251
255 255 255
255 255 255
255 255 255
255 255 255
251 251 251
255 255 255
255 255 255
255 255 255
255 255 255
255 255 255
251 251 251
251 251 251
255 255 255
251 251 251
51 51 51
55 55 55
35 35 35
23 23 23
51 51 51
31 31 31
23 23 23
27 27 27
251 251 251
247 247 247
247 247 247
247 247 247
67 67 67
87 87 87
67 67 67
67 67 67
55 55 55
55 55 55
47 47 47
71 71 71
27 27 27
39 39 39
255 255 255
255 255 255
247 247 247
255 255 255
247 247 247
251 251 251
255 255 255
255 255 255
55 55 55
67 67 67
51 51 51
75 75 75
71 71 71
83 83 83
59 59 59
75 75 75
95 95 95
79 79 79
59 59 59
87 87 87
91 91 91
119 119 119
63 63 63
247 247 247
255 255 255
255 255 255
255 255 255
255 255 255
255 255 255
255 255 255
255 255 255
255 255 255
255 255 255
255 255 255
243 243 243
251 251 251
247 247 247
247 247 247
243 243 243
251 251 251
235 235 235
243 243 243
239 239 239
11 11 11
39 39 39
23 23 23
15 15 15
11 11 11
171 171 171
163 163 163
175 175 175
207 207 207
203 203 203
207 207 207
207 207 207
11 11 11
31 31 31
51 51 51
67 67 67
31 31 31
39 39 39
27 27 27
19 19 19
235 235 235
227 227 227
243 243 243
231 231 231
243 243 243
243 243 243
247 247 247
239 239 239
239 239 239
243 243 243
59 59 59
51 51 51
63 63 63
75 75 75
91 91 91
79 79 79
63 63 63
91 91 91
71 71 71
55 55 55
67 67 67
59 59 59
91 91 91
39 39 39
251 251 251
251 251 251
251 251 251
255 255 255
251 251 251
255 255 255
255 255 255
255 255 255
255 255 255
239 239 239
235 235 235
227 227 227
235 235 235
211 211 211
243 243 243
171 171 171
203 203 203
155 155 155
151 151 151
95 95 95
123 123 123
99 99 99
91 91 91
127 127 127
107 107 107
167 167 167
171 171 171
187 187 187
155 155 155
155 155 155
155 155 155
155 155 155
115 115 115
91 91 91
23 23 23
23 23 23
7 7 7
23 23 23
87 87 87
107 107 107
143 143 143
163 163 163
183 183 183
207 207 207
219 219 219
219 219 219
239 239 239
207 207 207
223 223 223
223 223 223
223 223 223
51 51 51
51 51 51
55 55 55
59 59 59
67 67 67
51 51 51
63 63 63
75 75 75
67 67 67
71 71 71
79 79 79
51 51 51
247 247 247
251 251 251
251 251 251
255 255 255
239 239 239
247 247 247
255 255 255
251 251 251
255 255 255
255 255 255
235 235 235
231 231 231
239 239 239
219 219 219
215 215 215
211 211 211
223 223 223
215 215 215
203 203 203
223 223 223
195 195 195
211 211 211
215 215 215
187 187 187
211 211 211
207 207 207
203 203 203
211 211 211
175 175 175
183 183 183
195 195 195
135 135 135
159 159 159
139 139 139
103 103 103
127 127 127
95 95 95
131 131 131
111 111 111
119 119 119
155 155 155
151 151 151
163 163 163
183 183 183
195 195 195
211 211 211
227 227 227
167 167 167
159 159 159
167 167 167
171 171 171
139 139 139
151 151 151
27 27 27
35 35 35
51 51 51
19 19 19
31 31 31
71 71 71
39 39 39
43 43 43
39 39 39
47 47 47
199 199 199
235 235 235
227 227 227
223 223 223
231 231 231
247 247 247
239 239 239
251 251 251
251 251 251
255 255 255
251 251 251
223 223 223
231 231 231
223 223 223
215 215 215
231 231 231
243 243 243
223 223 223
235 235 235
243 243 243
227 227 227
235 235 235
223 223 223
203 203 203
227 227 227
219 219 219
215 215 215
215 215 215
207 207 207
199 199 199
223 223 223
207 207 207
227 227 227
199 199 199
183 183 183
203 203 203
191 191 191
191 191 191
191 191 191
223 223 223
171 171 171
215 215 215
195 195 195
203 203 203
191 191 191
227 227 227
183 183 183
183 183 183
191 191 191
163 163 163
135 135 135
127 127 127
119 119 119
103 103 103
55 55 55
23 23 23
11 11 11
11 11 11
15 15 15
19 19 19
35 35 35
23 23 23
127 127 127
143 143 143
159 159 159
187 187 187
187 187 187
219 219 219
227 227 227
215 215 215
223 223 223
223 223 223
247 247 247
247 247 247
251 251 251
247 247 247
243 243 243
251 251 251
239 239 239
235 235 235
235 235 235
239 239 239
231 231 231
239 239 239
243 243 243
247 247 247
235 235 235
231 231 231
235 235 235
231 231 231
239 239 239
219 219 219
223 223 223
231 231 231
223 223 223
223 223 223
215 215 215
211 211 211
223 223 223
231 231 231
227 227 227
211 211 211
219 219 219
219 219 219
207 207 207
195 195 195
219 219 219
207 207 207
207 207 207
179 179 179
199 199 199
195 195 195
203 203 203
191 191 191
183 183 183
171 171 171
175 175 175
103 103 103
83 83 83
103 103 103
83 83 83
87 87 87
43 43 43
63 63 63
43 43 43
47 47 47
43 43 43
99 99 99
107 107 107
171 171 171
167 167 167
163 163 163
195 195 195
195 195 195
183 183 183
199 199 199
187 187 187
223 223 223
227 227 227
243 243 243
239 239 239
239 239 239
235 235 235
235 235 235
243 243 243
247 247 247
243 243 243
243 243 243
247 247 247
223 223 223
239 239 239
239 239 239
247 247 247
231 231 231
231 231 231
247 247 247
231 231 231
239 239 239
239 239 239
235 235 235
239 239 239
239 239 239
239 239 239
235 235 235
243 243 243
243 243 243
247 247 247
223 223 223
223 223 223
223 223 223
223 223 223
211 211 211
219 219 219
231 231 231
227 227 227
215 215 215
199 199 199
207 207 207
215 215 215
207 207 207
203 203 203
179 179 179
159 159 159
179 179 179
139 139 139
151 151 151
163 163 163
147 147 147
119 119 119
155 155 155
159 159 159
119 119 119
155 155 155
167 167 167
143 143 143
167 167 167
187 187 187
187 187 187
191 191 191
207 207 207
211 211 211
219 219 219
227 227 227
243 243 243
239 239 239
247 247 247
243 243 243
243 243 243
243 243 243
227 227 227
255 255 255
243 243 243
247 247 247
231 231 231
243 243 243
231 231 231
243 243 243
243 243 243
227 227 227
255 255 255
255 255 255
239 239 239
231 231 231
235 235 235
239 239 239
235 235 235
235 235 235
227 227 227
235 235 235
239 239 239
243 243 243
243 243 243
239 239 239
227 227 227
235 235 235
223 223 223
231 231 231
239 239 239
227 227 227
235 235 235
239 239 239
223 223 223
231 231 231
219 219 219
211 211 211
203 203 203
191 191 191
211 211 211
183 183 183
203 203 203
167 167 167
191 191 191
187 187 187
203 203 203
195 195 195
183 183 183
203 203 203
199 199 199
179 179 179
191 191 191
199 199 199
199 199 199
199 199 199
211 211 211
207 207 207
203 203 203
231 231 231
239 239 239
247 247 247
251 251 251
247 247 247
227 227 227
243 243 243
251 251 251
251 251 251
223 223 223
247 247 247
243 243 243
235 235 235
247 247 247
247 247 247
247 247 247
239 239 239
243 243 243
251 251 251
239 239 239
247 247 247
239 239 239
227 227 227
243 243 243
235 235 235
243 243 243
235 235 235
247 247 247
239 239 239
239 239 239
247 247 247
231 231 231
231 231 231
231 231 231
223 223 223
235 235 235
235 235 235
239 239 239
243 243 243
215 215 215
211 211 211
227 227 227
243 243 243
223 223 223
207 207 207
235 235 235
223 223 223
207 207 207
203 203 203
223 223 223
227 227 227
231 231 231
203 203 203
187 187 187
203 203 203
187 187 187
219 219 219
235 235 235
223 223 223
203 203 203
215 215 215
207 207 207
227 227 227
215 215 215
227 227 227
243 243 243
247 247 247
247 247 247
243 243 243
239 239 239
227 227 227
243 243 243
251 251 251
255 255 255
251 251 251
243 243 243
247 247 247
243 243 243
255 255 255
247 247 247
243 243 243
251 251 251
235 235 235
251 251 251
247 247 247
235 235 235
231 231 231
247 247 247
247 247 247
239 239 239
243 243 243
231 231 231
247 247 247
231 231 231
239 239 239
251 251 251
243 243 243
227 227 227
251 251 251
239 239 239
235 235 235
243 243 243
231 231 231
227 227 227
247 247 247
223 223 223
227 227 227
239 239 239
227 227 227
215 215 215
239 239 239
211 211 211
223 223 223
223 223 223
211 211 211
215 215 215
215 215 215
219 219 219
227 227 227
207 207 207
219 219 219
203 203 203
243 243 243
227 227 227
227 227 227
223 223 223
223 223 223
235 235 235
239 239 239
247 247 247
251 251 251
247 247 247
235 235 235
251 251 251
251 251 251
247 247 247
223 223 223
243 243 243
255 255 255
243 243 243
247 247 247
239 239 239
239 239 239
239 239 239
255 255 255
247 247 247
255 255 255
247 247 247
243 243 243
243 243 243
251 251 251
247 247 247
251 251 251
251 251 251
251 251 251
255 255 255
235 235 235
243 243 243
247 247 247
247 247 247
239 239 239
247 247 247
239 239 239
243 243 243
243 243 243
219 219 219
235 235 235
235 235 235
231 231 231
235 235 235
231 231 231
235 235 235
235 235 235
227 227 227
235 235 235
235 235 235
235 235 235
239 239 239
227 227 227
219 219 219
223 223 223
231 231 231
227 227 227
239 239 239
223 223 223
219 219 219
247 247 247
227 227 227
223 223 223
239 239 239
239 239 239
231 231 231
223 223 223
243 243 243
251 251 251
247 247 247
247 247 247
255 255 255
247 247 247
247 247 247
251 251 251
251 251 251
247 247 247
243 243 243
247 247 247
251 251 251
251 251 251
231 231 231
247 247 247
243 243 243
247 247 247
251 251 251
247 247 247
247 247 247
247 247 247
243 243 243
247 247 247
251 251 251
231 231 231
251 251 251
247 247 247
239 239 239
243 243 243
247 247 247
239 239 239
251 251 251
243 243 243
235 235 235
243 243 243
243 243 243
235 235 235
243 243 243
231 231 231
247 247 247
243 243 243
243 243 243
227 227 227
231 231 231
219 219 219
243 243 243
243 243 243
235 235 235
235 235 235
227 227 227
223 223 223
243 243 243
235 235 235
231 231 231
239 239 239
235 235 235
239 239 239
247 247 247
223 223 223
235 235 235
239 239 239
239 239 239
247 247 247
243 243 243
247 247 247
251 251 251
243 243 243
251 251 251
247 247 247
243 243 243
247 247 247
243 243 243
251 251 251
243 243 243
251 251 251
255 255 255
251 251 251
255 255 255
243 243 243
247 247 247
251 251 251
247 247 247
255 255 255
243 243 243
243 243 243
247 247 247
243 243 243
247 247 247
243 243 243
243 243 243
247 247 247
251 251 251
231 231 231
239 239 239
251 251 251
251 251 251
247 247 247
243 243 243
239 239 239
227 227 227
235 235 235
231 231 231
239 239 239
243 243 243
243 243 243
231 231 231
231 231 231
251 251 251
247 247 247
235 235 235
239 239 239
239 239 239
243 243 243
227 227 227
231 231 231
235 235 235
231 231 231
239 239 239
235 235 235
231 231 231
247 247 247
231 231 231
227 227 227
243 243 243
235 235 235
239 239 239
239 239 239
255 255 255
247 247 247
247 247 247
255 255 255
251 251 251
255 255 255
243 243 243
243 243 243
255 255 255
251 251 251
243 243 243
255 255 255
251 251 251
239 239 239
255 255 255
247 247 247
247 247 247
239 239 239
243 243 243
247 247 247
243 243 243
239 239 239
243 243 243
235 235 235
235 235 235
243 243 243
247 247 247
251 251 251
239 239 239
243 243 243
251 251 251
247 247 247
243 243 243
243 243 243
239 239 239
247 247 247
247 247 247
247 247 247
239 239 239
247 247 247
243 243 243
247 247 247
247 247 247
243 243 243
247 247 247
251 251 251
227 227 227
251 251 251
223 223 223
235 235 235
243 243 243
239 239 239
255 255 255
251 251 251
239 239 239
243 243 243
235 235 235
251 251 251
243 243 243
231 231 231
235 235 235
251 251 251
239 239 239
243 243 243
247 247 247
255 255 255
243 243 243
251 251 251
247 247 247
239 239 239
243 243 243
247 247 247
255 255 255
243 243 243
243 243 243
251 251 251
243 243 243
251 251 251
247 247 247
247 247 247
243 243 243
243 243 243
255 255 255
247 247 247
247 247 247
247 247 247
243 243 243
243 243 243
251 251 251
247 247 247
243 243 243
239 239 239
239 239 239
247 247 247
239 239 239
239 239 239
251 251 251
235 235 235
255 255 255
251 251 251
247 247 247
243 243 243
239 239 239
235 235 235
239 239 239
247 247 247
239 239 239
239 239 239
235 235 235
243 243 243
231 231 231
243 243 243
247 247 247
235 235 235
243 243 243
235 235 235
247 247 247
231 231 231
235 235 235
243 243 243
251 251 251
231 231 231
235 235 235
251 251 251
247 247 247
243 243 243
235 235 235
243 243 243
243 243 243
255 255 255
255 255 255
247 247 247
247 247 247
251 251 251
247 247 247
243 243 243
243 243 243
235 235 235
255 255 255
235 235 235
251 251 251
239 239 239
247 247 247
251 251 251
251 251 251
239 239 239
251 251 251
251 251 251
243 243 243
247 247 247
247 247 247
247 247 247
247 247 247
243 243 243
255 255 255
251 251 251
251 251 251
247 247 247
243 243 243
247 247 247
239 239 239
251 251 251
251 251 251
243 243 243
243 243 243
243 243 243
247 247 247
239 239 239
251 251 251
247 247 247
239 239 239
243 243 243
239 239 239
247 247 247
243 243 243
227 227 227
239 239 239
219 219 219
243 243 243
247 247 247
251 251 251
247 247 247
243 243 243
243 243 243
239 239 239
243 243 243
239 239 239
235 235 235
243 243 243
247 247 247
235 235 235
243 243 243
239 239 239
243 243 243
243 243 243
251 251 251
247 247 247
243 243 243
255 255 255
251 251 251
247 247 247
247 247 247
243 243 243
251 251 251
235 235 235
251 251 251
243 243 243
239 239 239
251 251 251
247 247 247
255 255 255
247 247 247
251 251 251
247 247 247
247 247 247
251 251 251
251 251 251
255 255 255
243 243 243
243 243 243
251 251 251
247 247 247
255 255 255
243 243 243
243 243 243
251 251 251
251 251 251
255 255 255
255 255 255
243 243 243
227 227 227
247 247 247
247 247 247
251 251 251
247 247 247
243 243 243
235 235 235
243 243 243
243 243 243
243 243 243
239 239 239
243 243 243
243 243 243
235 235 235
251 251 251
239 239 239
247 247 247
239 239 239
239 239 239
239 239 239
235 235 235
247 247 247
247 247 247
239 239 239
239 239 239
247 247 247
251 251 251
251 251 251
251 251 251
243 243 243
255 255 255
247 247 247
251 251 251
243 243 243
239 239 239
255 255 255
251 251 251
255 255 255
243 243 243
239 239 239
247 247 247
247 247 247
239 239 239
243 243 243
247 247 247
247 247 247
243 243 243
251 251 251
247 247 247
255 255 255
247 247 247
243 243 243
243 243 243
243 243 243
247 247 247
243 243 243
251 251 251
243 243 243
247 247 247
251 251 251
251 251 251
247 247 247
243 243 243
251 251 251
239 239 239
247 247 247
247 247 247
247 247 247
255 255 255
247 247 247
243 243 243
247 247 247
247 247 247
243 243 243
247 247 247
235 235 235
247 247 247
251 251 251
251 251 251
243 243 243
239 239 239
251 251 251
243 243 243
239 239 239
223 223 223
247 247 247
243 243 243
243 243 243
251 251 251
247 247 247
243 243 243
251 251 251
251 251 251
251 251 251
243 243 243
247 247 247
243 243 243
247 247 247
251 251 251
247 247 247
255 255 255
243 243 243
251 251 251
251 251 251
247 247 247
251 251 251
251 251 251
251 251 251
255 255 255
247 247 247
251 251 251
247 247 247
243 243 243
251 251 251
247 247 247
247 247 247
247 247 247
255 255 255
251 251 251
247 247 247
247 247 247
251 251 251
243 243 243
247 247 247
243 243 243
227 227 227
247 247 247
251 251 251
247 247 247
247 247 247
251 251 251
223 223 223
251 251 251
255 255 255
251 251 251
247 247 247
239 239 239
251 251 251
243 243 243
247 247 247
255 255 255
251 251 251
243 243 243
251 251 251
239 239 239
247 247 247
239 239 239
239 239 239
239 239 239
239 239 239
247 247 247
239 239 239
243 243 243
235 235 235
247 247 247
251 251 251
251 251 251
251 251 251
243 243 243
239 239 239
255 255 255
247 247 247
247 247 247
255 255 255
255 255 255
255 255 255
247 247 247
243 243 243
243 243 243
243 243 243
251 251 251
243 243 243
255 255 255
251 251 251
251 251 251
247 247 247
247 247 247
251 251 251
247 247 247
255 255 255
247 247 247
255 255 255
243 243 243
251 251 251
251 251 251
247 247 247
251 251 251
251 251 251
251 251 251
251 251 251
239 239 239
247 247 247
247 247 247
251 251 251
239 239 239
247 247 247
255 255 255
247 247 247
243 243 243
255 255 255
243 243 243
247 247 247
247 247 247
247 247 247
227 227 227
243 243 243
243 243 243
235 235 235
247 247 247
231 231 231
251 251 251
247 247 247
235 235 235
239 239 239
243 243 243
247 247 247
239 239 239
243 243 243
247 247 247
251 251 251
255 255 255
247 247 247
251 251 251
251 251 251
251 251 251
247 247 247
251 251 251
251 251 251
239 239 239
247 247 247
255 255 255
247 247 247
243 243 243
255 255 255
247 247 247
251 251 251
243 243 243
239 239 239
251 251 251
239 239 239
251 251 251
239 239 239
247 247 247
255 255 255
255 255 255
247 247 247
251 251 251
243 243 243
251 251 251
251 251 251
251 251 251
239 239 239
235 235 235
251 251 251
247 247 247
255 255 255
251 251 251
255 255 255
235 235 235
251 251 251
243 243 243
247 247 247
251 251 251
247 247 247
243 243 243
239 239 239
243 243 243
243 243 243
243 243 243
247 247 247
251 251 251
239 239 239
247 247 247
243 243 243
251 251 251
247 247 247
243 243 243
243 243 243
255 255 255
243 243 243
247 247 247
239 239 239
235 235 235
255 255 255
251 251 251
247 247 247
247 247 247
251 251 251
247 247 247
247 247 247
247 247 247
251 251 251
247 247 247
247 247 247
239 239 239
251 251 251
247 247 247
247 247 247
255 255 255
243 243 243
255 255 255
243 243 243
247 247 247
251 251 251
255 255 255
251 251 251
247 247 247
247 247 247
235 235 235
255 255 255
247 247 247
251 251 251
251 251 251
251 251 251
243 243 243
251 251 251
251 251 251
255 255 255
247 247 247
247 247 247
247 247 247
247 247 247
251 251 251
243 243 243
243 243 243
255 255 255
247 247 247
251 251 251
247 247 247
243 243 243
239 239 239
251 251 251
247 247 247
247 247 247
243 243 243
247 247 247
247 247 247
247 247 247
247 247 247
243 243 243
239 239 239
247 247 247
243 243 243
255 255 255
255 255 255
251 251 251
255 255 255
247 247 247
239 239 239
251 251 251
255 255 255
251 251 251
247 247 247
247 247 247
247 247 247
251 251 251
247 247 247
243 243 243
243 243 243
251 251 251
247 247 247
243 243 243
255 255 255
243 243 243
243 243 243
239 239 239
255 255 255
251 251 251
247 247 247
247 247 247
251 251 251
239 239 239
243 243 243
243 243 243
243 243 243
247 247 247
243 243 243
247 247 247
247 247 247
247 247 247
243 243 243
247 247 247
247 247 247
251 251 251
243 243 243
251 251 251
239 239 239
235 235 235
255 255 255
247 247 247
239 239 239
227 227 227
243 243 243
247 247 247
247 247 247
247 247 247
251 251 251
239 239 239
255 255 255
247 247 247
251 251 251
247 247 247
251 251 251
247 247 247
255 255 255
239 239 239
243 243 243
255 255 255
243 243 243
243 243 243
255 255 255
255 255 255
255 255 255
255 255 255
243 243 243
255 255 255
243 243 243
255 255 255
239 239 239
251 251 251
243 243 243
243 243 243
247 247 247
239 239 239
247 247 247
243 243 243
255 255 255
255 255 255
247 247 247
243 243 243
251 251 251
235 235 235
251 251 251
251 251 251
251 251 251
251 251 251
251 251 251
247 247 247
251 251 251
243 243 243
255 255 255
251 251 251
239 239 239
247 247 247
247 247 247
251 251 251
255 255 255
251 251 251
255 255 255
251 251 251
251 251 251
251 251 251
247 247 247
247 247 247
247 247 247
251 251 251
247 247 247
243 243 243
251 251 251
239 239 239
243 243 243
235 235 235
243 243 243
251 251 251
247 247 247
243 243 243
251 251 251
255 255 255
239 239 239
251 251 251
247 247 247
251 251 251
235 235 235
251 251 251
251 251 251
243 243 243
251 251 251
247 247 247
251 251 251
251 251 251
251 251 251
243 243 243
255 255 255
247 247 247
243 243 243
247 247 247
251 251 251
251 251 251
251 251 251
255 255 255
255 255 255
251 251 251
255 255 255
255 255 255
239 239 239
243 243 243
247 247 247
239 239 239
243 243 243
255 255 255
251 251 251
247 247 247
255 255 255
243 243 243
251 251 251
243 243 243
247 247 247
239 239 239
243 243 243
255 255 255
255 255 255
243 243 243
247 247 247
251 251 251
247 247 247
251 251 251
255 255 255
247 247 247
251 251 251
255 255 255
247 247 247
251 251 251
251 251 251
251 251 251
247 247 247
255 255 255
255 255 255
247 247 247
247 247 247
247 247 247
235 235 235
247 247 247
247 247 247
243 243 243
251 251 251
251 251 251
239 239 239
247 247 247
255 255 255
247 247 247
247 247 247
251 251 251
251 251 251
239 239 239
247 247 247
255 255 255
255 255 255
251 251 251
247 247 247
251 251 251
251 251 251
255 255 255
251 251 251
251 251 251
243 243 243
251 251 251
251 251 251
251 251 251
255 255 255
247 247 247
243 243 243
247 247 247
247 247 247
255 255 255
255 255 255
247 247 247
251 251 251
247 247 247
255 255 255
255 255 255
247 247 247
247 247 247
247 247 247
247 247 247
255 255 255
247 247 247
243 243 243
255 255 255
255 255 255
251 251 251
243 243 243
247 247 247
251 251 251
247 247 247
251 251 251
247 247 247
247 247 247
243 243 243
251 251 251
255 255 255
247 247 247
251 251 251
251 251 251
239 239 239
243 243 243
251 251 251
239 239 239
243 243 243
255 255 255
251 251 251
251 251 251
251 251 251
243 243 243
235 235 235
251 251 251
251 251 251
251 251 251
251 251 251
251 251 251
247 247 247
251 251 251
251 251 251
247 247 247
251 251 251
247 247 247
251 251 251
255 255 255
239 239 239
247 247 247
255 255 255
255 255 255
243 243 243
239 239 239
243 243 243
251 251 251
247 247 247
251 251 251
251 251 251
255 255 255
239 239 239
255 255 255
251 251 251
255 255 255
243 243 243
247 247 247
251 251 251
247 247 247
247 247 247
251 251 251
243 243 243
247 247 247
251 251 251
251 251 251
255 255 255
247 247 247
251 251 251
251 251 251
247 247 247
255 255 255
247 247 247
255 255 255
251 251 251
243 243 243
247 247 247
247 247 247
255 255 255
239 239 239
231 231 231
251 251 251
243 243 243
251 251 251
255 255 255
239 239 239
251 251 251
247 247 247
251 251 251
251 251 251
255 255 255
251 251 251
247 247 247
247 247 247
247 247 247
251 251 251
251 251 251
247 247 247
251 251 251
247 247 247
243 243 243
251 251 251
255 255 255
255 255 255
243 243 243
251 251 251
251 251 251
247 247 247
255 255 255
239 239 239
247 247 247
243 243 243
239 239 239
251 251 251
251 251 251
255 255 255
239 239 239
251 251 251
251 251 251
247 247 247
251 251 251
247 247 247
255 255 255
239 239 239
255 255 255
251 251 251
255 255 255
251 251 251
251 251 251
239 239 239
255 255 255
251 251 251
255 255 255
243 243 243
247 247 247
247 247 247
251 251 251
251 251 251
239 239 239
243 243 243
247 247 247
243 243 243
251 251 251
251 251 251
251 251 251
247 247 247
247 247 247
247 247 247
247 247 247
251 251 251
255 255 255
247 247 247
255 255 255
235 235 235
251 251 251
251 251 251
251 251 251
247 247 247
247 247 247
251 251 251
251 251 251
251 251 251
247 247 247
255 255 255
255 255 255
243 243 243
255 255 255
235 235 235
247 247 247
243 243 243
251 251 251
251 251 251
251 251 251
247 247 247
251 251 251
247 247 247
239 239 239
255 255 255
247 247 247
239 239 239
251 251 251
251 251 251
247 247 247
251 251 251
243 243 243
251 251 251
255 255 255
255 255 255
255 255 255
243 243 243
239 239 239
251 251 251
235 235 235
239 239 239
255 255 255
251 251 251
255 255 255
251 251 251
243 243 243
247 247 247
251 251 251
251 251 251
247 247 247
251 251 251
251 251 251
251 251 251
243 243 243
247 247 247
251 251 251
243 243 243
239 239 239
255 255 255
243 243 243
247 247 247
247 247 247
251 251 251
247 247 247
