P3
64 64
255
0 0 0
0 0 0
0 0 0
0 0 0
0 0 0
0 0 0
0 0 0
0 0 0
0 0 0
0 0 0
0 0 0
0 0 0
0 0 0
0 0 0
0 0 0
0 0 0
0 0 0
0 0 0
0 0 0
0 0 0
0 0 0
0 0 0
0 0 0
0 0 0
0 0 0
0 0 0
0 0 0
0 0 0
0 0 0
0 0 0
0 0 0
0 0 0
0 0 0
0 0 0
0 0 0
0 0 0
0 0 0
0 0 0
0 0 0
0 0 0
0 0 0
0 0 0
0 0 0
0 0 0
0 0 0
0 0 0
0 0 0
0 0 0
0 0 0
0 0 0
0 0 0
0 0 0
0 0 0
0 0 0
0 0 0
0 0 0
0 0 0
0 0 0
0 0 0
0 0 0
0 0 0
0 0 0
0 0 0
0 0 0
0 0 0
0 0 0
0 0 0
0 0 0
0 0 0
0 0 0
0 0 0
0 0 0
0 0 0
0 0 0
0 0 0
0 0 0
0 0 0
0 0 0
0 0 0
0 0 0
0 0 0
0 0 0
0 0 0
0 0 0
0 0 0
0 0 0
0 0 0
0 0 0
0 0 0
0 0 0
0 0 0
0 0 0
0 0 0
0 0 0
0 0 0
0 0 0
0 0 0
0 0 0
0 0 0
0 0 0
0 0 0
0 0 0
0 0 0
0 0 0
0 0 0
0 0 0
0 0 0
0 0 0
0 0 0
0 0 0
0 0 0
0 0 0
0 0 0
0 0 0
0 0 0
0 0 0
0 0 0
0 0 0
0 0 0
0 0 0
0 0 0
0 0 0
0 0 0
0 0 0
0 0 0
0 0 0
0 0 0
0 0 0
0 0 0
0 0 0
0 0 0
0 0 0
0 0 0
0 0 0
0 0 0
0 0 0
0 0 0
0 0 0
0 0 0
0 0 0
0 0 0
0 0 0
0 0 0
0 0 0
0 0 0
0 0 0
0 0 0
0 0 0
0 0 0
0 0 0
0 0 0
0 0 0
0 0 0
0 0 0
0 0 0
0 0 0
0 0 0
0 0 0
0 0 0
0 0 0
0 0 0
0 0 0
0 0 0
0 0 0
0 0 0
0 0 0
0 0 0
0 0 0
0 0 0
0 0 0
0 0 0
0 0 0
0 0 0
0 0 0
0 0 0
0 0 0
0 0 0
0 0 0
0 0 0
0 0 0
0 0 0
0 0 0
0 0 0
0 0 0
0 0 0
0 0 0
0 0 0
0 0 0
0 0 0
0 0 0
0 0 0
0 0 0
0 0 0
0 0 0
0 0 0
0 0 0
0 0 0
0 0 0
0 0 0
0 0 0
0 0 0
0 0 0
0 0 0
0 0 0
0 0 0
0 0 0
0 0 0
0 0 0
0 0 0
0 0 0
0 0 0
0 0 0
0 0 0
0 0 0
0 0 0
0 0 0
0 0 0
0 0 0
0 0 0
0 0 0
0 0 0
0 0 0
0 0 0
0 0 0
0 0 0
0 0 0
0 0 0
0 0 0
0 0 0
0 0 0
0 0 0
0 0 0
0 0 0
0 0 0
0 0 0
0 0 0
0 0 0
0 0 0
0 0 0
0 0 0
0 0 0
0 0 0
0 0 0
0 0 0
0 0 0
0 0 0
0 0 0
0 0 0
0 0 0
0 0 0
0 0 0
0 0 0
0 0 0
0 0 0
0 0 0
0 0 0
0 0 0
0 0 0
0 0 0
0 0 0
0 0 0
0 0 0
0 0 0
0 0 0
0 0 0
0 0 0
0 0 0
0 0 0
0 0 0
0 0 0
0 0 0
0 0 0
0 0 0
0 0 0
0 0 0
0 0 0
0 0 0
0 0 0
0 0 0
0 0 0
0 0 0
0 0 0
0 0 0
0 0 0
0 0 0
0 0 0
0 0 0
0 0 0
0 0 0
0 0 0
0 0 0
0 0 0
0 0 0
0 0 0
0 0 0
0 0 0
0 0 0
0 0 0
0 0 0
0 0 0
0 0 0
0 0 0
0 0 0
0 0 0
0 0 0
0 0 0
0 0 0
0 0 0
0 0 0
0 0 0
0 0 0
0 0 0
0 0 0
0 0 0
0 0 0
0 0 0
0 0 0
0 0 0
0 0 0
0 0 0
0 0 0
0 0 0
0 0 0
0 0 0
0 0 0
0 0 0
0 0 0
0 0 0
0 0 0
0 0 0
0 0 0
0 0 0
0 0 0
0 0 0
0 0 0
0 0 0
0 0 0
0 0 0
0 0 0
0 0 0
0 0 0
0 0 0
0 0 0
0 0 0
0 0 0
0 0 0
0 0 0
0 0 0
0 0 0
0 0 0
0 0 0
0 0 0
0 0 0
0 0 0
0 0 0
0 0 0
0 0 0
0 0 0
0 0 0
0 0 0
0 0 0
0 0 0
0 0 0
0 0 0
0 0 0
0 0 0
0 0 0
0 0 0
0 0 0
0 0 0
0 0 0
0 0 0
0 0 0
0 0 0
0 0 0
0 0 0
0 0 0
0 0 0
0 0 0
0 0 0
0 0 0
0 0 0
0 0 0
0 0 0
0 0 0
0 0 0
0 0 0
0 0 0
0 0 0
0 0 0
0 0 0
0 0 0
0 0 0
0 0 0
0 0 0
0 0 0
0 0 0
0 0 0
0 0 0
0 0 0
0 0 0
0 0 0
0 0 0
0 0 0
0 0 0
0 0 0
0 0 0
0 0 0
0 0 0
0 0 0
0 0 0
0 0 0
0 0 0
0 0 0
0 0 0
0 0 0
0 0 0
0 0 0
0 0 0
0 0 0
0 0 0
0 0 0
0 0 0
0 0 0
0 0 0
0 0 0
0 0 0
0 0 0
0 0 0
0 0 0
0 0 0
0 0 0
0 0 0
0 0 0
0 0 0
0 0 0
0 0 0
0 0 0
0 0 0
0 0 0
0 0 0
0 0 0
0 0 0
0 0 0
0 0 0
0 0 0
0 0 0
0 0 0
0 0 0
0 0 0
0 0 0
0 0 0
0 0 0
0 0 0
0 0 0
0 0 0
0 0 0
0 0 0
0 0 0
0 0 0
0 0 0
0 0 0
0 0 0
0 0 0
0 0 0
0 0 0
0 0 0
0 0 0
0 0 0
0 0 0
0 0 0
0 0 0
0 0 0
0 0 0
0 0 0
0 0 0
0 0 0
0 0 0
0 0 0
0 0 0
0 0 0
0 0 0
0 0 0
0 0 0
0 0 0
0 0 0
0 0 0
0 0 0
0 0 0
0 0 0
0 0 0
0 0 0
0 0 0
0 0 0
0 0 0
0 0 0
0 0 0
0 0 0
0 0 0
0 0 0
0 0 0
0 0 0
0 0 0
0 0 0
0 0 0
0 0 0
0 0 0
0 0 0
0 0 0
0 0 0
0 0 0
0 0 0
0 0 0
0 0 0
0 0 0
0 0 0
0 0 0
0 0 0
0 0 0
0 0 0
0 0 0
0 0 0
0 0 0
0 0 0
0 0 0
0 0 0
0 0 0
0 0 0
0 0 0
0 0 0
0 0 0
0 0 0
0 0 0
0 0 0
0 0 0
0 0 0
0 0 0
0 0 0
0 0 0
0 0 0
0 0 0
0 0 0
0 0 0
0 0 0
0 0 0
0 0 0
0 0 0
0 0 0
0 0 0
0 0 0
0 0 0
0 0 0
0 0 0
0 0 0
0 0 0
0 0 0
0 0 0
0 0 0
0 0 0
0 0 0
0 0 0
0 0 0
0 0 0
0 0 0
0 0 0
0 0 0
0 0 0
0 0 0
0 0 0
0 0 0
0 0 0
0 0 0
0 0 0
0 0 0
0 0 0
0 0 0
0 0 0
0 0 0
0 0 0
0 0 0
0 0 0
0 0 0
0 0 0
0 0 0
0 0 0
0 0 0
0 0 0
0 0 0
0 0 0
0 0 0
0 0 0
0 0 0
0 0 0
0 0 0
0 0 0
0 0 0
0 0 0
0 0 0
0 0 0
0 0 0
0 0 0
0 0 0
0 0 0
0 0 0
0 0 0
0 0 0
0 0 0
0 0 0
0 0 0
0 0 0
0 0 0
0 0 0
0 0 0
0 0 0
0 0 0
0 0 0
0 0 0
0 0 0
0 0 0
0 0 0
0 0 0
0 0 0
0 0 0
0 0 0
0 0 0
0 0 0
0 0 0
0 0 0
0 0 0
0 0 0
0 0 0
0 0 0
0 0 0
0 0 0
0 0 0
0 0 0
0 0 0
0 0 0
0 0 0
0 0 0
0 0 0
0 0 0
0 0 0
0 0 0
0 0 0
0 0 0
0 0 0
0 0 0
0 0 0
0 0 0
0 0 0
0 0 0
0 0 0
0 0 0
0 0 0
0 0 0
0 0 0
0 0 0
0 0 0
0 0 0
0 0 0
0 0 0
0 0 0
0 0 0
0 0 0
0 0 0
0 0 0
0 0 0
0 0 0
0 0 0
0 0 0
0 0 0
0 0 0
0 0 0
0 0 0
0 0 0
0 0 0
0 0 0
0 0 0
0 0 0
0 0 0
0 0 0
0 0 0
0 0 0
0 0 0
0 0 0
0 0 0
0 0 0
0 0 0
0 0 0
0 0 0
0 0 0
0 0 0
0 0 0
0 0 0
0 0 0
0 0 0
0 0 0
0 0 0
0 0 0
0 0 0
0 0 0
0 0 0
0 0 0
0 0 0
0 0 0
0 0 0
0 0 0
0 0 0
0 0 0
0 0 0
0 0 0
0 0 0
0 0 0
0 0 0
0 0 0
0 0 0
0 0 0
0 0 0
0 0 0
0 0 0
0 0 0
0 0 0
0 0 0
0 0 0
0 0 0
0 0 0
0 0 0
0 0 0
0 0 0
0 0 0
0 0 0
0 0 0
0 0 0
0 0 0
0 0 0
0 0 0
0 0 0
0 0 0
0 0 0
0 0 0
0 0 0
0 0 0
0 0 0
0 0 0
0 0 0
0 0 0
0 0 0
0 0 0
0 0 0
0 0 0
0 0 0
0 0 0
0 0 0
0 0 0
0 0 0
0 0 0
0 0 0
0 0 0
0 0 0
0 0 0
0 0 0
0 0 0
0 0 0
0 0 0
0 0 0
0 0 0
0 0 0
0 0 0
0 0 0
0 0 0
0 0 0
0 0 0
0 0 0
0 0 0
0 0 0
0 0 0
0 0 0
0 0 0
0 0 0
0 0 0
0 0 0
0 0 0
0 0 0
0 0 0
0 0 0
0 0 0
0 0 0
0 0 0
0 0 0
0 0 0
0 0 0
0 0 0
0 0 0
0 0 0
0 0 0
0 0 0
0 0 0
0 0 0
0 0 0
0 0 0
0 0 0
0 0 0
0 0 0
0 0 0
0 0 0
0 0 0
0 0 0
0 0 0
0 0 0
0 0 0
0 0 0
0 0 0
0 0 0
0 0 0
0 0 0
0 0 0
0 0 0
0 0 0
0 0 0
0 0 0
0 0 0
0 0 0
0 0 0
0 0 0
0 0 0
0 0 0
0 0 0
0 0 0
0 0 0
0 0 0
0 0 0
0 0 0
0 0 0
0 0 0
0 0 0
0 0 0
0 0 0
0 0 0
0 0 0
0 0 0
0 0 0
0 0 0
0 0 0
0 0 0
0 0 0
0 0 0
0 0 0
0 0 0
0 0 0
0 0 0
0 0 0
0 0 0
0 0 0
0 0 0
0 0 0
0 0 0
0 0 0
0 0 0
0 0 0
0 0 0
0 0 0
0 0 0
0 0 0
0 0 0
0 0 0
0 0 0
0 0 0
0 0 0
0 0 0
0 0 0
0 0 0
0 0 0
0 0 0
0 0 0
0 0 0
0 0 0
0 0 0
0 0 0
0 0 0
0 0 0
0 0 0
0 0 0
0 0 0
0 0 0
0 0 0
0 0 0
0 0 0
0 0 0
0 0 0
0 0 0
0 0 0
0 0 0
0 0 0
0 0 0
0 0 0
0 0 0
0 0 0
0 0 0
0 0 0
0 0 0
0 0 0
0 0 0
0 0 0
0 0 0
0 0 0
0 0 0
0 0 0
0 0 0
0 0 0
0 0 0
0 0 0
0 0 0
0 0 0
0 0 0
0 0 0
0 0 0
0 0 0
0 0 0
0 0 0
0 0 0
0 0 0
0 0 0
0 0 0
0 0 0
0 0 0
0 0 0
0 0 0
0 0 0
0 0 0
0 0 0
0 0 0
0 0 0
0 0 0
0 0 0
0 0 0
0 0 0
0 0 0
0 0 0
0 0 0
0 0 0
0 0 0
0 0 0
0 0 0
0 0 0
0 0 0
0 0 0
0 0 0
0 0 0
0 0 0
0 0 0
0 0 0
0 0 0
0 0 0
0 0 0
0 0 0
0 0 0
0 0 0
0 0 0
0 0 0
0 0 0
0 0 0
0 0 0
0 0 0
0 0 0
0 0 0
0 0 0
0 0 0
0 0 0
0 0 0
0 0 0
0 0 0
0 0 0
0 0 0
0 0 0
0 0 0
0 0 0
0 0 0
0 0 0
0 0 0
0 0 0
0 0 0
0 0 0
0 0 0
0 0 0
0 0 0
0 0 0
0 0 0
0 0 0
0 0 0
0 0 0
0 0 0
0 0 0
0 0 0
0 0 0
0 0 0
0 0 0
0 0 0
0 0 0
0 0 0
0 0 0
0 0 0
0 0 0
0 0 0
0 0 0
0 0 0
0 0 0
0 0 0
0 0 0
0 0 0
0 0 0
0 0 0
0 0 0
0 0 0
0 0 0
0 0 0
0 0 0
0 0 0
0 0 0
0 0 0
0 0 0
0 0 0
0 0 0
0 0 0
0 0 0
0 0 0
0 0 0
0 0 0
0 0 0
0 0 0
0 0 0
0 0 0
0 0 0
0 0 0
0 0 0
0 0 0
0 0 0
0 0 0
0 0 0
0 0 0
0 0 0
0 0 0
0 0 0
0 0 0
0 0 0
0 0 0
0 0 0
0 0 0
0 0 0
0 0 0
0 0 0
0 0 0
0 0 0
0 0 0
0 0 0
0 0 0
0 0 0
0 0 0
0 0 0
0 0 0
0 0 0
0 0 0
0 0 0
0 0 0
0 0 0
0 0 0
0 0 0
0 0 0
0 0 0
0 0 0
0 0 0
0 0 0
0 0 0
0 0 0
0 0 0
0 0 0
0 0 0
0 0 0
0 0 0
0 0 0
0 0 0
0 0 0
0 0 0
0 0 0
0 0 0
0 0 0
0 0 0
0 0 0
0 0 0
0 0 0
0 0 0
0 0 0
0 0 0
0 0 0
0 0 0
0 0 0
0 0 0
0 0 0
0 0 0
0 0 0
0 0 0
0 0 0
0 0 0
0 0 0
0 0 0
0 0 0
0 0 0
0 0 0
0 0 0
0 0 0
0 0 0
0 0 0
0 0 0
0 0 0
0 0 0
0 0 0
0 0 0
0 0 0
0 0 0
0 0 0
0 0 0
0 0 0
0 0 0
0 0 0
0 0 0
0 0 0
0 0 0
0 0 0
0 0 0
0 0 0
0 0 0
0 0 0
0 0 0
0 0 0
0 0 0
0 0 0
0 0 0
0 0 0
0 0 0
0 0 0
0 0 0
0 0 0
0 0 0
0 0 0
0 0 0
0 0 0
0 0 0
0 0 0
0 0 0
0 0 0
0 0 0
0 0 0
0 0 0
0 0 0
0 0 0
0 0 0
0 0 0
0 0 0
0 0 0
0 0 0
0 0 0
0 0 0
0 0 0
0 0 0
0 0 0
0 0 0
0 0 0
0 0 0
0 0 0
0 0 0
0 0 0
0 0 0
0 0 0
0 0 0
0 0 0
0 0 0
0 0 0
0 0 0
0 0 0
0 0 0
0 0 0
0 0 0
0 0 0
0 0 0
0 0 0
0 0 0
0 0 0
0 0 0
0 0 0
0 0 0
0 0 0
0 0 0
0 0 0
0 0 0
0 0 0
0 0 0
0 0 0
0 0 0
0 0 0
0 0 0
0 0 0
0 0 0
0 0 0
0 0 0
0 0 0
0 0 0
0 0 0
0 0 0
0 0 0
0 0 0
0 0 0
0 0 0
0 0 0
0 0 0
0 0 0
0 0 0
0 0 0
0 0 0
0 0 0
0 0 0
0 0 0
0 0 0
0 0 0
0 0 0
0 0 0
0 0 0
0 0 0
0 0 0
0 0 0
0 0 0
0 0 0
0 0 0
0 0 0
0 0 0
0 0 0
0 0 0
0 0 0
0 0 0
0 0 0
0 0 0
0 0 0
0 0 0
0 0 0
0 0 0
0 0 0
0 0 0
0 0 0
0 0 0
0 0 0
0 0 0
0 0 0
0 0 0
0 0 0
0 0 0
0 0 0
0 0 0
0 0 0
0 0 0
0 0 0
0 0 0
0 0 0
0 0 0
0 0 0
0 0 0
0 0 0
0 0 0
0 0 0
0 0 0
0 0 0
0 0 0
0 0 0
0 0 0
0 0 0
0 0 0
0 0 0
0 0 0
0 0 0
0 0 0
0 0 0
0 0 0
0 0 0
0 0 0
0 0 0
0 0 0
0 0 0
0 0 0
0 0 0
0 0 0
0 0 0
0 0 0
0 0 0
0 0 0
0 0 0
0 0 0
0 0 0
0 0 0
0 0 0
0 0 0
0 0 0
0 0 0
0 0 0
0 0 0
0 0 0
0 0 0
0 0 0
0 0 0
0 0 0
0 0 0
0 0 0
0 0 0
0 0 0
0 0 0
0 0 0
0 0 0
0 0 0
0 0 0
0 0 0
0 0 0
0 0 0
0 0 0
0 0 0
0 0 0
0 0 0
0 0 0
0 0 0
0 0 0
0 0 0
0 0 0
0 0 0
0 0 0
0 0 0
0 0 0
0 0 0
0 0 0
0 0 0
0 0 0
0 0 0
0 0 0
0 0 0
0 0 0
0 0 0
0 0 0
0 0 0
0 0 0
0 0 0
0 0 0
0 0 0
0 0 0
0 0 0
0 0 0
0 0 0
0 0 0
0 0 0
0 0 0
0 0 0
0 0 0
0 0 0
0 0 0
0 0 0
0 0 0
0 0 0
0 0 0
0 0 0
0 0 0
0 0 0
0 0 0
0 0 0
0 0 0
0 0 0
0 0 0
0 0 0
0 0 0
0 0 0
0 0 0
0 0 0
0 0 0
0 0 0
0 0 0
0 0 0
0 0 0
0 0 0
0 0 0
0 0 0
0 0 0
0 0 0
0 0 0
0 0 0
0 0 0
0 0 0
0 0 0
0 0 0
0 0 0
0 0 0
0 0 0
0 0 0
0 0 0
0 0 0
0 0 0
0 0 0
0 0 0
0 0 0
0 0 0
0 0 0
0 0 0
0 0 0
0 0 0
0 0 0
0 0 0
0 0 0
0 0 0
0 0 0
0 0 0
0 0 0
0 0 0
0 0 0
0 0 0
0 0 0
0 0 0
0 0 0
0 0 0
0 0 0
0 0 0
0 0 0
0 0 0
0 0 0
0 0 0
0 0 0
0 0 0
0 0 0
0 0 0
0 0 0
0 0 0
0 0 0
0 0 0
0 0 0
0 0 0
0 0 0
0 0 0
0 0 0
0 0 0
0 0 0
0 0 0
0 0 0
0 0 0
0 0 0
0 0 0
0 0 0
0 0 0
0 0 0
0 0 0
0 0 0
0 0 0
0 0 0
0 0 0
0 0 0
0 0 0
0 0 0
0 0 0
0 0 0
0 0 0
0 0 0
0 0 0
0 0 0
0 0 0
0 0 0
0 0 0
0 0 0
0 0 0
0 0 0
0 0 0
0 0 0
0 0 0
0 0 0
0 0 0
0 0 0
0 0 0
0 0 0
0 0 0
0 0 0
0 0 0
0 0 0
0 0 0
0 0 0
0 0 0
0 0 0
0 0 0
0 0 0
0 0 0
0 0 0
0 0 0
0 0 0
0 0 0
0 0 0
0 0 0
0 0 0
0 0 0
0 0 0
0 0 0
0 0 0
0 0 0
0 0 0
0 0 0
0 0 0
0 0 0
0 0 0
0 0 0
0 0 0
0 0 0
0 0 0
0 0 0
0 0 0
0 0 0
0 0 0
0 0 0
0 0 0
0 0 0
0 0 0
0 0 0
0 0 0
0 0 0
0 0 0
0 0 0
0 0 0
0 0 0
0 0 0
0 0 0
0 0 0
0 0 0
0 0 0
0 0 0
0 0 0
0 0 0
0 0 0
0 0 0
0 0 0
0 0 0
0 0 0
0 0 0
0 0 0
0 0 0
0 0 0
0 0 0
0 0 0
0 0 0
0 0 0
0 0 0
0 0 0
0 0 0
0 0 0
0 0 0
0 0 0
0 0 0
0 0 0
0 0 0
0 0 0
0 0 0
0 0 0
0 0 0
0 0 0
0 0 0
0 0 0
0 0 0
0 0 0
0 0 0
0 0 0
0 0 0
0 0 0
0 0 0
0 0 0
0 0 0
0 0 0
0 0 0
0 0 0
0 0 0
0 0 0
0 0 0
0 0 0
0 0 0
0 0 0
0 0 0
0 0 0
0 0 0
0 0 0
0 0 0
0 0 0
0 0 0
0 0 0
0 0 0
0 0 0
0 0 0
0 0 0
0 0 0
0 0 0
0 0 0
0 0 0
0 0 0
0 0 0
0 0 0
0 0 0
0 0 0
0 0 0
0 0 0
0 0 0
0 0 0
0 0 0
0 0 0
0 0 0
0 0 0
0 0 0
0 0 0
0 0 0
0 0 0
0 0 0
0 0 0
0 0 0
0 0 0
0 0 0
0 0 0
0 0 0
0 0 0
0 0 0
0 0 0
0 0 0
0 0 0
0 0 0
0 0 0
0 0 0
0 0 0
0 0 0
0 0 0
0 0 0
0 0 0
0 0 0
0 0 0
0 0 0
0 0 0
0 0 0
0 0 0
0 0 0
0 0 0
0 0 0
0 0 0
0 0 0
58 58 58
180 180 180
233 233 233
230 230 230
223 223 223
232 232 232
230 230 230
165 165 165
53 53 53
0 0 0
0 0 0
0 0 0
0 0 0
0 0 0
0 0 0
0 0 0
0 0 0
0 0 0
0 0 0
0 0 0
0 0 0
0 0 0
0 0 0
0 0 0
0 0 0
0 0 0
0 0 0
0 0 0
0 0 0
0 0 0
0 0 0
0 0 0
0 0 0
0 0 0
0 0 0
0 0 0
0 0 0
0 0 0
0 0 0
0 0 0
0 0 0
0 0 0
0 0 0
0 0 0
0 0 0
0 0 0
0 0 0
0 0 0
0 0 0
0 0 0
0 0 0
0 0 0
0 0 0
0 0 0
0 0 0
0 0 0
0 0 0
0 0 0
0 0 0
0 0 0
0 0 0
0 0 0
0 0 0
175 175 175
218 218 218
222 222 222
211 211 211
213 213 213
208 208 208
210 210 210
222 222 222
210 210 210
208 208 208
157 157 157
0 0 0
0 0 0
0 0 0
0 0 0
0 0 0
0 0 0
0 0 0
0 0 0
0 0 0
0 0 0
0 0 0
0 0 0
0 0 0
0 0 0
0 0 0
0 0 0
0 0 0
0 0 0
0 0 0
0 0 0
0 0 0
0 0 0
0 0 0
61 61 61
122 122 122
124 124 124
0 0 0
0 0 0
0 0 0
0 0 0
0 0 0
0 0 0
0 0 0
0 0 0
58 58 58
174 174 174
234 234 234
219 219 219
228 228 228
235 235 235
113 113 113
0 0 0
0 0 0
0 0 0
0 0 0
0 0 0
0 0 0
0 0 0
0 0 0
0 0 0
0 0 0
0 0 0
154 154 154
204 204 204
198 198 198
187 187 187
196 196 196
194 194 194
192 192 192
196 196 196
189 189 189
201 201 201
199 199 199
194 194 194
138 138 138
0 0 0
0 0 0
0 0 0
0 0 0
0 0 0
0 0 0
0 0 0
0 0 0
0 0 0
0 0 0
0 0 0
0 0 0
0 0 0
0 0 0
0 0 0
0 0 0
0 0 0
0 0 0
0 0 0
0 0 0
105 105 105
227 227 227
220 220 220
229 229 229
222 222 222
228 228 228
113 113 113
0 0 0
0 0 0
0 0 0
0 0 0
0 0 0
51 51 51
200 200 200
206 206 206
190 190 190
208 208 208
215 215 215
214 214 214
214 214 214
156 156 156
0 0 0
0 0 0
0 0 0
0 0 0
0 0 0
0 0 0
0 0 0
0 0 0
0 0 0
92 92 92
185 185 185
191 191 191
179 179 179
179 179 179
181 181 181
178 178 178
183 183 183
184 184 184
180 180 180
185 185 185
188 188 188
182 182 182
175 175 175
134 134 134
0 0 0
0 0 0
0 0 0
0 0 0
0 0 0
0 0 0
0 0 0
0 0 0
0 0 0
0 0 0
0 0 0
0 0 0
0 0 0
0 0 0
0 0 0
0 0 0
0 0 0
0 0 0
149 149 149
191 191 191
191 191 191
187 187 187
188 188 188
196 196 196
193 193 193
192 192 192
141 141 141
0 0 0
0 0 0
0 0 0
0 0 0
190 190 190
186 186 186
193 193 193
198 198 198
176 176 176
172 172 172
190 190 190
183 183 183
175 175 175
88 88 88
0 0 0
0 0 0
0 0 0
0 0 0
0 0 0
0 0 0
0 0 0
0 0 0
181 181 181
162 162 162
171 171 171
177 177 177
178 178 178
159 159 159
163 163 163
161 161 161
170 170 170
163 163 163
159 159 159
168 168 168
163 163 163
159 159 159
168 168 168
40 40 40
0 0 0
0 0 0
0 0 0
0 0 0
0 0 0
0 0 0
0 0 0
0 0 0
0 0 0
0 0 0
0 0 0
0 0 0
0 0 0
0 0 0
0 0 0
0 0 0
40 40 40
167 167 167
144 144 144
161 161 161
160 160 160
163 163 163
160 160 160
169 169 169
145 145 145
173 173 173
84 84 84
0 0 0
0 0 0
90 90 90
167 167 167
182 182 182
166 166 166
165 165 165
160 160 160
139 139 139
155 155 155
168 168 168
140 140 140
156 156 156
0 0 0
0 0 0
0 0 0
0 0 0
0 0 0
0 0 0
0 0 0
78 78 78
149 149 149
158 158 158
146 146 146
162 162 162
139 139 139
146 146 146
149 149 149
154 154 154
150 150 150
156 156 156
147 147 147
151 151 151
144 144 144
148 148 148
138 138 138
70 70 70
0 0 0
0 0 0
0 0 0
0 0 0
0 0 0
0 0 0
0 0 0
0 0 0
0 0 0
0 0 0
0 0 0
0 0 0
0 0 0
0 0 0
0 0 0
0 0 0
75 75 75
149 149 149
141 141 141
136 136 136
132 132 132
143 143 143
140 140 140
127 127 127
116 116 116
121 121 121
137 137 137
0 0 0
0 0 0
68 68 68
148 148 148
144 144 144
149 149 149
152 152 152
140 140 140
137 137 137
143 143 143
115 115 115
124 124 124
119 119 119
0 0 0
0 0 0
0 0 0
0 0 0
0 0 0
0 0 0
0 0 0
76 76 76
126 126 126
131 131 131
127 127 127
141 141 141
132 132 132
139 139 139
143 143 143
143 143 143
135 135 135
140 140 140
144 144 144
138 138 138
140 140 140
137 137 137
143 143 143
134 134 134
0 0 0
0 0 0
0 0 0
0 0 0
0 0 0
0 0 0
0 0 0
0 0 0
127 127 127
127 127 127
127 127 127
127 127 127
127 127 127
127 127 127
127 127 127
127 127 127
119 119 119
129 129 129
119 119 119
128 128 128
112 112 112
112 112 112
114 114 114
99 99 99
95 95 95
98 98 98
93 93 93
127 127 127
127 127 127
125 125 125
120 120 120
130 130 130
116 116 116
115 115 115
125 125 125
112 112 112
121 121 121
113 113 113
88 88 88
104 104 104
127 127 127
127 127 127
127 127 127
127 127 127
127 127 127
127 127 127
127 127 127
121 121 121
116 116 116
121 121 121
131 131 131
125 125 125
126 126 126
118 118 118
140 140 140
128 128 128
111 111 111
115 115 115
122 122 122
131 131 131
106 106 106
121 121 121
138 138 138
114 114 114
127 127 127
127 127 127
127 127 127
127 127 127
127 127 127
127 127 127
127 127 127
127 127 127
255 255 255
255 255 255
255 255 255
255 255 255
255 255 255
255 255 255
255 255 255
255 255 255
186 186 186
92 92 92
99 99 99
80 80 80
99 99 99
91 91 91
73 73 73
67 67 67
61 61 61
53 53 53
121 121 121
255 255 255
255 255 255
183 183 183
86 86 86
105 105 105
102 102 102
99 99 99
95 95 95
98 98 98
97 97 97
93 93 93
71 71 71
78 78 78
255 255 255
254 254 254
254 254 254
255 255 255
255 255 255
255 255 255
255 255 255
175 175 175
94 94 94
105 105 105
124 124 124
103 103 103
114 114 114
128 128 128
104 104 104
123 123 123
114 114 114
109 109 109
114 114 114
98 98 98
113 113 113
119 119 119
117 117 117
137 137 137
255 255 255
255 255 255
255 255 255
255 255 255
255 255 255
255 255 255
255 255 255
255 255 255
254 254 254
255 255 255
255 255 255
255 255 255
255 255 255
255 255 255
255 255 255
254 254 254
255 255 255
58 58 58
71 71 71
67 67 67
72 72 72
71 71 71
48 48 48
54 54 54
46 46 46
45 45 45
202 202 202
255 255 255
252 252 252
208 208 208
69 69 69
76 76 76
71 71 71
70 70 70
86 86 86
68 68 68
73 73 73
64 64 64
52 52 52
103 103 103
253 253 253
253 253 253
253 253 253
255 255 255
255 255 255
252 252 252
255 255 255
205 205 205
77 77 77
87 87 87
83 83 83
94 94 94
84 84 84
95 95 95
103 103 103
96 96 96
93 93 93
82 82 82
99 99 99
104 104 104
92 92 92
86 86 86
90 90 90
171 171 171
255 255 255
255 255 255
255 255 255
253 253 253
255 255 255
255 255 255
254 254 254
255 255 255
254 254 254
253 253 253
254 254 254
254 254 254
254 254 254
253 253 253
253 253 253
250 250 250
250 250 250
201 201 201
52 52 52
38 38 38
42 42 42
31 31 31
28 28 28
31 31 31
27 27 27
186 186 186
246 246 246
242 242 242
242 242 242
243 243 243
90 90 90
68 68 68
66 66 66
52 52 52
54 54 54
56 56 56
42 42 42
48 48 48
35 35 35
198 198 198
244 244 244
252 252 252
249 249 249
251 251 251
245 245 245
251 251 251
253 253 253
251 251 251
111 111 111
68 68 68
68 68 68
78 78 78
78 78 78
78 78 78
87 87 87
77 77 77
66 66 66
80 80 80
82 82 82
79 79 79
92 92 92
74 74 74
77 77 77
253 253 253
255 255 255
255 255 255
252 252 252
255 255 255
254 254 254
255 255 255
255 255 255
254 254 254
247 247 247
247 247 247
251 251 251
244 244 244
241 241 241
239 239 239
229 229 229
226 226 226
230 230 230
200 200 200
180 180 180
66 66 66
32 32 32
10 10 10
9 9 9
8 8 8
125 125 125
141 141 141
160 160 160
169 169 169
190 190 190
210 210 210
198 198 198
74 74 74
36 36 36
39 39 39
36 36 36
31 31 31
33 33 33
11 11 11
146 146 146
210 210 210
212 212 212
222 222 222
224 224 224
229 229 229
234 234 234
228 228 228
237 237 237
234 234 234
193 193 193
42 42 42
61 61 61
59 59 59
58 58 58
65 65 65
71 71 71
69 69 69
71 71 71
82 82 82
61 61 61
71 71 71
79 79 79
61 61 61
204 204 204
252 252 252
252 252 252
249 249 249
252 252 252
254 254 254
254 254 254
253 253 253
254 254 254
253 253 253
240 240 240
234 234 234
231 231 231
215 215 215
212 212 212
192 192 192
188 188 188
176 176 176
157 157 157
147 147 147
148 148 148
135 135 135
129 129 129
147 147 147
154 154 154
156 156 156
178 178 178
184 184 184
197 197 197
177 177 177
164 164 164
145 145 145
139 139 139
92 92 92
59 59 59
18 18 18
9 9 9
16 16 16
22 22 22
81 81 81
109 109 109
147 147 147
165 165 165
182 182 182
191 191 191
205 205 205
215 215 215
203 203 203
221 221 221
212 212 212
220 220 220
166 166 166
33 33 33
36 36 36
43 43 43
37 37 37
57 57 57
56 56 56
56 56 56
52 52 52
55 55 55
37 37 37
49 49 49
190 190 190
240 240 240
238 238 238
248 248 248
249 249 249
250 250 250
248 248 248
251 251 251
251 251 251
250 250 250
249 249 249
232 232 232
227 227 227
231 231 231
234 234 234
223 223 223
222 222 222
226 226 226
229 229 229
220 220 220
206 206 206
212 212 212
218 218 218
214 214 214
221 221 221
219 219 219
215 215 215
205 205 205
202 202 202
200 200 200
190 190 190
181 181 181
167 167 167
163 163 163
148 148 148
125 125 125
130 130 130
125 125 125
132 132 132
156 156 156
154 154 154
168 168 168
167 167 167
183 183 183
203 203 203
196 196 196
184 184 184
182 182 182
187 187 187
179 179 179
157 157 157
145 145 145
137 137 137
93 93 93
39 39 39
23 23 23
28 28 28
38 38 38
33 33 33
32 32 32
23 23 23
34 34 34
72 72 72
156 156 156
208 208 208
222 222 222
222 222 222
218 218 218
241 241 241
239 239 239
242 242 242
241 241 241
242 242 242
245 245 245
250 250 250
240 240 240
235 235 235
240 240 240
235 235 235
237 237 237
236 236 236
234 234 234
228 228 228
231 231 231
232 232 232
221 221 221
224 224 224
227 227 227
223 223 223
220 220 220
211 211 211
224 224 224
215 215 215
223 223 223
210 210 210
209 209 209
203 203 203
205 205 205
209 209 209
196 196 196
209 209 209
196 196 196
206 206 206
191 191 191
204 204 204
194 194 194
202 202 202
203 203 203
200 200 200
216 216 216
185 185 185
189 189 189
177 177 177
147 147 147
160 160 160
130 130 130
113 113 113
95 95 95
55 55 55
31 31 31
16 16 16
13 13 13
9 9 9
19 19 19
28 28 28
69 69 69
110 110 110
142 142 142
146 146 146
175 175 175
192 192 192
194 194 194
202 202 202
223 223 223
228 228 228
222 222 222
232 232 232
235 235 235
241 241 241
233 233 233
247 247 247
240 240 240
236 236 236
240 240 240
243 243 243
246 246 246
240 240 240
241 241 241
238 238 238
235 235 235
236 236 236
242 242 242
234 234 234
231 231 231
232 232 232
241 241 241
228 228 228
228 228 228
234 234 234
231 231 231
221 221 221
232 232 232
231 231 231
221 221 221
232 232 232
216 216 216
222 222 222
219 219 219
217 217 217
216 216 216
212 212 212
223 223 223
216 216 216
204 204 204
214 214 214
200 200 200
210 210 210
200 200 200
178 178 178
190 190 190
159 159 159
165 165 165
142 142 142
122 122 122
110 110 110
87 87 87
82 82 82
62 62 62
70 70 70
93 93 93
102 102 102
116 116 116
135 135 135
143 143 143
170 170 170
155 155 155
183 183 183
200 200 200
194 194 194
213 213 213
216 216 216
224 224 224
224 224 224
241 241 241
243 243 243
240 240 240
237 237 237
242 242 242
242 242 242
248 248 248
241 241 241
238 238 238
249 249 249
237 237 237
242 242 242
243 243 243
238 238 238
231 231 231
237 237 237
233 233 233
237 237 237
239 239 239
243 243 243
244 244 244
230 230 230
242 242 242
230 230 230
237 237 237
233 233 233
235 235 235
227 227 227
231 231 231
230 230 230
222 222 222
223 223 223
218 218 218
231 231 231
224 224 224
218 218 218
216 216 216
215 215 215
224 224 224
205 205 205
190 190 190
194 194 194
186 186 186
184 184 184
176 176 176
167 167 167
160 160 160
153 153 153
145 145 145
156 156 156
163 163 163
165 165 165
153 153 153
156 156 156
153 153 153
179 179 179
176 176 176
195 195 195
199 199 199
204 204 204
212 212 212
214 214 214
230 230 230
214 214 214
243 243 243
244 244 244
242 242 242
242 242 242
246 246 246
239 239 239
242 242 242
235 235 235
243 243 243
248 248 248
238 238 238
241 241 241
234 234 234
246 246 246
239 239 239
235 235 235
239 239 239
243 243 243
236 236 236
234 234 234
241 241 241
243 243 243
231 231 231
236 236 236
234 234 234
233 233 233
238 238 238
238 238 238
236 236 236
230 230 230
225 225 225
231 231 231
226 226 226
234 234 234
234 234 234
222 222 222
237 237 237
223 223 223
225 225 225
229 229 229
219 219 219
213 213 213
201 201 201
212 212 212
200 200 200
206 206 206
198 198 198
206 206 206
199 199 199
188 188 188
191 191 191
185 185 185
188 188 188
194 194 194
200 200 200
196 196 196
205 205 205
211 211 211
197 197 197
206 206 206
211 211 211
217 217 217
217 217 217
215 215 215
245 245 245
249 249 249
246 246 246
239 239 239
242 242 242
243 243 243
244 244 244
244 244 244
244 244 244
246 246 246
238 238 238
246 246 246
242 242 242
245 245 245
246 246 246
243 243 243
243 243 243
239 239 239
242 242 242
240 240 240
241 241 241
240 240 240
239 239 239
239 239 239
242 242 242
240 240 240
240 240 240
240 240 240
231 231 231
235 235 235
234 234 234
234 234 234
239 239 239
230 230 230
239 239 239
234 234 234
231 231 231
233 233 233
226 226 226
221 221 221
228 228 228
226 226 226
227 227 227
220 220 220
226 226 226
217 217 217
222 222 222
217 217 217
223 223 223
214 214 214
214 214 214
221 221 221
218 218 218
213 213 213
212 212 212
221 221 221
207 207 207
211 211 211
223 223 223
224 224 224
208 208 208
217 217 217
223 223 223
224 224 224
244 244 244
244 244 244
247 247 247
243 243 243
248 248 248
242 242 242
244 244 244
253 253 253
246 246 246
245 245 245
244 244 244
243 243 243
247 247 247
243 243 243
243 243 243
245 245 245
243 243 243
246 246 246
243 243 243
246 246 246
242 242 242
238 238 238
241 241 241
241 241 241
241 241 241
238 238 238
236 236 236
234 234 234
243 243 243
243 243 243
238 238 238
243 243 243
241 241 241
239 239 239
239 239 239
240 240 240
239 239 239
235 235 235
229 229 229
237 237 237
225 225 225
235 235 235
227 227 227
227 227 227
228 228 228
232 232 232
232 232 232
226 226 226
227 227 227
216 216 216
223 223 223
229 229 229
225 225 225
218 218 218
223 223 223
226 226 226
215 215 215
228 228 228
229 229 229
224 224 224
221 221 221
225 225 225
224 224 224
230 230 230
246 246 246
246 246 246
247 247 247
247 247 247
254 254 254
244 244 244
243 243 243
241 241 241
244 244 244
247 247 247
243 243 243
245 245 245
246 246 246
242 242 242
248 248 248
250 250 250
242 242 242
241 241 241
241 241 241
245 245 245
246 246 246
243 243 243
241 241 241
244 244 244
242 242 242
240 240 240
243 243 243
240 240 240
246 246 246
247 247 247
239 239 239
241 241 241
239 239 239
245 245 245
239 239 239
242 242 242
242 242 242
232 232 232
236 236 236
229 229 229
243 243 243
236 236 236
239 239 239
232 232 232
238 238 238
234 234 234
237 237 237
229 229 229
223 223 223
224 224 224
233 233 233
222 222 222
229 229 229
238 238 238
229 229 229
236 236 236
227 227 227
219 219 219
230 230 230
232 232 232
220 220 220
226 226 226
232 232 232
236 236 236
252 252 252
243 243 243
244 244 244
245 245 245
251 251 251
244 244 244
249 249 249
247 247 247
248 248 248
245 245 245
245 245 245
245 245 245
244 244 244
244 244 244
249 249 249
243 243 243
245 245 245
249 249 249
241 241 241
244 244 244
240 240 240
246 246 246
245 245 245
243 243 243
244 244 244
245 245 245
241 241 241
241 241 241
243 243 243
244 244 244
249 249 249
244 244 244
239 239 239
239 239 239
243 243 243
245 245 245
243 243 243
240 240 240
242 242 242
241 241 241
242 242 242
247 247 247
235 235 235
234 234 234
239 239 239
237 237 237
238 238 238
229 229 229
240 240 240
230 230 230
242 242 242
225 225 225
229 229 229
235 235 235
236 236 236
241 241 241
227 227 227
236 236 236
226 226 226
236 236 236
229 229 229
236 236 236
224 224 224
245 245 245
251 251 251
248 248 248
241 241 241
243 243 243
241 241 241
253 253 253
248 248 248
249 249 249
251 251 251
247 247 247
249 249 249
243 243 243
246 246 246
249 249 249
244 244 244
247 247 247
242 242 242
244 244 244
236 236 236
245 245 245
242 242 242
243 243 243
246 246 246
244 244 244
244 244 244
249 249 249
243 243 243
238 238 238
242 242 242
242 242 242
248 248 248
245 245 245
245 245 245
246 246 246
241 241 241
248 248 248
243 243 243
241 241 241
229 229 229
240 240 240
242 242 242
236 236 236
236 236 236
238 238 238
238 238 238
242 242 242
239 239 239
238 238 238
236 236 236
234 234 234
238 238 238
238 238 238
239 239 239
239 239 239
238 238 238
227 227 227
234 234 234
232 232 232
241 241 241
235 235 235
240 240 240
240 240 240
237 237 237
237 237 237
249 249 249
246 246 246
250 250 250
245 245 245
240 240 240
244 244 244
249 249 249
246 246 246
246 246 246
249 249 249
247 247 247
250 250 250
247 247 247
249 249 249
247 247 247
246 246 246
251 251 251
243 243 243
245 245 245
241 241 241
246 246 246
249 249 249
246 246 246
243 243 243
248 248 248
244 244 244
241 241 241
245 245 245
241 241 241
244 244 244
244 244 244
239 239 239
237 237 237
243 243 243
248 248 248
245 245 245
233 233 233
237 237 237
245 245 245
239 239 239
236 236 236
238 238 238
243 243 243
234 234 234
245 245 245
244 244 244
242 242 242
238 238 238
235 235 235
237 237 237
239 239 239
244 244 244
246 246 246
239 239 239
241 241 241
237 237 237
233 233 233
242 242 242
235 235 235
235 235 235
238 238 238
236 236 236
240 240 240
241 241 241
248 248 248
249 249 249
248 248 248
246 246 246
245 245 245
249 249 249
249 249 249
245 245 245
251 251 251
244 244 244
249 249 249
247 247 247
247 247 247
246 246 246
243 243 243
248 248 248
244 244 244
249 249 249
246 246 246
249 249 249
244 244 244
248 248 248
249 249 249
238 238 238
249 249 249
247 247 247
246 246 246
246 246 246
247 247 247
244 244 244
236 236 236
245 245 245
248 248 248
243 243 243
241 241 241
239 239 239
249 249 249
246 246 246
242 242 242
247 247 247
247 247 247
250 250 250
242 242 242
247 247 247
249 249 249
237 237 237
242 242 242
246 246 246
239 239 239
238 238 238
242 242 242
245 245 245
242 242 242
242 242 242
239 239 239
239 239 239
239 239 239
246 246 246
246 246 246
236 236 236
234 234 234
238 238 238
239 239 239
240 240 240
245 245 245
252 252 252
248 248 248
245 245 245
250 250 250
242 242 242
244 244 244
247 247 247
246 246 246
247 247 247
245 245 245
245 245 245
248 248 248
250 250 250
246 246 246
247 247 247
243 243 243
247 247 247
240 240 240
251 251 251
248 248 248
243 243 243
247 247 247
244 244 244
245 245 245
247 247 247
246 246 246
247 247 247
244 244 244
243 243 243
245 245 245
247 247 247
245 245 245
244 244 244
246 246 246
241 241 241
241 241 241
244 244 244
242 242 242
242 242 242
249 249 249
240 240 240
250 250 250
248 248 248
245 245 245
244 244 244
244 244 244
246 246 246
238 238 238
241 241 241
245 245 245
245 245 245
243 243 243
241 241 241
241 241 241
249 249 249
245 245 245
243 243 243
241 241 241
243 243 243
240 240 240
247 247 247
236 236 236
234 234 234
249 249 249
245 245 245
245 245 245
250 250 250
247 247 247
251 251 251
248 248 248
240 240 240
254 254 254
243 243 243
252 252 252
249 249 249
250 250 250
247 247 247
245 245 245
246 246 246
247 247 247
248 248 248
245 245 245
249 249 249
243 243 243
244 244 244
249 249 249
237 237 237
248 248 248
247 247 247
248 248 248
244 244 244
245 245 245
244 244 244
248 248 248
249 249 249
248 248 248
245 245 245
249 249 249
242 242 242
240 240 240
248 248 248
247 247 247
247 247 247
250 250 250
244 244 244
252 252 252
246 246 246
241 241 241
239 239 239
245 245 245
252 252 252
237 237 237
243 243 243
236 236 236
242 242 242
244 244 244
247 247 247
243 243 243
244 244 244
237 237 237
238 238 238
247 247 247
241 241 241
242 242 242
239 239 239
247 247 247
242 242 242
248 248 248
248 248 248
246 246 246
241 241 241
247 247 247
250 250 250
251 251 251
248 248 248
250 250 250
250 250 250
252 252 252
246 246 246
251 251 251
249 249 249
253 253 253
250 250 250
248 248 248
247 247 247
247 247 247
250 250 250
247 247 247
246 246 246
244 244 244
252 252 252
245 245 245
243 243 243
250 250 250
241 241 241
248 248 248
250 250 250
247 247 247
246 246 246
244 244 244
244 244 244
238 238 238
248 248 248
245 245 245
246 246 246
238 238 238
244 244 244
241 241 241
244 244 244
240 240 240
247 247 247
244 244 244
245 245 245
238 238 238
249 249 249
249 249 249
241 241 241
246 246 246
244 244 244
246 246 246
250 250 250
246 246 246
243 243 243
244 244 244
240 240 240
245 245 245
245 245 245
238 238 238
242 242 242
247 247 247
247 247 247
248 248 248
245 245 245
251 251 251
247 247 247
251 251 251
251 251 251
245 245 245
248 248 248
249 249 249
250 250 250
248 248 248
252 252 252
250 250 250
249 249 249
252 252 252
246 246 246
242 242 242
250 250 250
252 252 252
246 246 246
251 251 251
246 246 246
246 246 246
245 245 245
248 248 248
251 251 251
243 243 243
250 250 250
247 247 247
246 246 246
246 246 246
247 247 247
249 249 249
247 247 247
248 248 248
251 251 251
239 239 239
249 249 249
245 245 245
248 248 248
248 248 248
245 245 245
239 239 239
243 243 243
243 243 243
249 249 249
244 244 244
245 245 245
243 243 243
243 243 243
245 245 245
251 251 251
243 243 243
242 242 242
246 246 246
246 246 246
250 250 250
246 246 246
247 247 247
234 234 234
240 240 240
242 242 242
245 245 245
243 243 243
247 247 247
249 249 249
250 250 250
248 248 248
247 247 247
254 254 254
252 252 252
251 251 251
246 246 246
250 250 250
249 249 249
249 249 249
248 248 248
251 251 251
251 251 251
247 247 247
250 250 250
249 249 249
246 246 246
246 246 246
245 245 245
246 246 246
246 246 246
242 242 242
244 244 244
249 249 249
242 242 242
247 247 247
250 250 250
246 246 246
245 245 245
249 249 249
248 248 248
247 247 247
248 248 248
242 242 242
251 251 251
246 246 246
245 245 245
248 248 248
248 248 248
242 242 242
246 246 246
248 248 248
240 240 240
243 243 243
243 243 243
241 241 241
247 247 247
244 244 244
246 246 246
243 243 243
244 244 244
245 245 245
242 242 242
245 245 245
247 247 247
242 242 242
241 241 241
245 245 245
243 243 243
244 244 244
247 247 247
245 245 245
246 246 246
248 248 248
252 252 252
250 250 250
244 244 244
247 247 247
247 247 247
247 247 247
250 250 250
251 251 251
250 250 250
246 246 246
251 251 251
248 248 248
249 249 249
245 245 245
247 247 247
249 249 249
246 246 246
251 251 251
250 250 250
247 247 247
247 247 247
244 244 244
251 251 251
247 247 247
249 249 249
247 247 247
246 246 246
248 248 248
241 241 241
250 250 250
245 245 245
246 246 246
243 243 243
247 247 247
252 252 252
244 244 244
244 244 244
246 246 246
242 242 242
246 246 246
246 246 246
243 243 243
250 250 250
242 242 242
251 251 251
246 246 246
239 239 239
242 242 242
244 244 244
245 245 245
248 248 248
240 240 240
247 247 247
246 246 246
240 240 240
245 245 245
246 246 246
242 242 242
246 246 246
237 237 237
249 249 249
243 243 243
243 243 243
245 245 245
248 248 248
250 250 250
249 249 249
251 251 251
246 246 246
247 247 247
248 248 248
250 250 250
250 250 250
251 251 251
249 249 249
249 249 249
250 250 250
251 251 251
249 249 249
244 244 244
252 252 252
242 242 242
247 247 247
247 247 247
250 250 250
249 249 249
251 251 251
245 245 245
250 250 250
246 246 246
247 247 247
251 251 251
248 248 248
244 244 244
242 242 242
245 245 245
245 245 245
250 250 250
251 251 251
248 248 248
246 246 246
250 250 250
244 244 244
243 243 243
248 248 248
243 243 243
249 249 249
247 247 247
250 250 250
247 247 247
249 249 249
246 246 246
248 248 248
246 246 246
246 246 246
246 246 246
245 245 245
247 247 247
239 239 239
246 246 246
246 246 246
246 246 246
245 245 245
247 247 247
246 246 246
245 245 245
250 250 250
249 249 249
244 244 244
250 250 250
250 250 250
249 249 249
250 250 250
251 251 251
248 248 248
243 243 243
252 252 252
248 248 248
248 248 248
249 249 249
250 250 250
242 242 242
246 246 246
248 248 248
250 250 250
250 250 250
244 244 244
249 249 249
251 251 251
248 248 248
246 246 246
250 250 250
249 249 249
250 250 250
248 248 248
243 243 243
246 246 246
244 244 244
242 242 242
247 247 247
249 249 249
252 252 252
248 248 248
247 247 247
249 249 249
248 248 248
247 247 247
245 245 245
252 252 252
249 249 249
247 247 247
250 250 250
241 241 241
249 249 249
247 247 247
248 248 248
244 244 244
244 244 244
244 244 244
252 252 252
246 246 246
251 251 251
247 247 247
249 249 249
246 246 246
245 245 245
247 247 247
251 251 251
246 246 246
242 242 242
249 249 249
246 246 246
248 248 248
247 247 247
247 247 247
250 250 250
248 248 248
247 247 247
246 246 246
251 251 251
248 248 248
251 251 251
248 248 248
249 249 249
249 249 249
251 251 251
245 245 245
244 244 244
250 250 250
252 252 252
249 249 249
246 246 246
249 249 249
249 249 249
249 249 249
248 248 248
247 247 247
245 245 245
248 248 248
245 245 245
242 242 242
248 248 248
248 248 248
248 248 248
246 246 246
248 248 248
244 244 244
249 249 249
247 247 247
246 246 246
243 243 243
247 247 247
250 250 250
245 245 245
247 247 247
253 253 253
250 250 250
250 250 250
250 250 250
248 248 248
246 246 246
248 248 248
246 246 246
242 242 242
248 248 248
243 243 243
248 248 248
250 250 250
248 248 248
244 244 244
246 246 246
249 249 249
250 250 250
243 243 243
252 252 252
251 251 251
248 248 248
252 252 252
246 246 246
249 249 249
249 249 249
245 245 245
248 248 248
252 252 252
252 252 252
249 249 249
251 251 251
249 249 249
244 244 244
249 249 249
247 247 247
249 249 249
250 250 250
248 248 248
244 244 244
248 248 248
243 243 243
251 251 251
252 252 252
245 245 245
251 251 251
250 250 250
250 250 250
251 251 251
249 249 249
249 249 249
244 244 244
250 250 250
245 245 245
244 244 244
248 248 248
249 249 249
249 249 249
243 243 243
243 243 243
245 245 245
245 245 245
253 253 253
248 248 248
242 242 242
244 244 244
250 250 250
248 248 248
254 254 254
247 247 247
248 248 248
247 247 247
245 245 245
241 241 241
246 246 246
248 248 248
241 241 241
246 246 246
248 248 248
249 249 249
247 247 247
245 245 245
247 247 247
251 251 251
247 247 247
250 250 250
253 253 253
250 250 250
252 252 252
252 252 252
251 251 251
251 251 251
252 252 252
254 254 254
251 251 251
249 249 249
248 248 248
250 250 250
248 248 248
245 245 245
250 250 250
249 249 249
250 250 250
252 252 252
251 251 251
248 248 248
250 250 250
251 251 251
250 250 250
247 247 247
245 245 245
245 245 245
247 247 247
249 249 249
246 246 246
249 249 249
246 246 246
243 243 243
249 249 249
251 251 251
252 252 252
248 248 248
247 247 247
250 250 250
250 250 250
247 247 247
245 245 245
247 247 247
249 249 249
252 252 252
246 246 246
252 252 252
246 246 246
243 243 243
248 248 248
243 243 243
251 251 251
252 252 252
248 248 248
244 244 244
249 249 249
251 251 251
247 247 247
247 247 247
252 252 252
249 249 249
250 250 250
250 250 250
248 248 248
247 247 247
246 246 246
251 251 251
247 247 247
252 252 252
252 252 252
245 245 245
250 250 250
253 253 253
250 250 250
252 252 252
247 247 247
248 248 248
249 249 249
248 248 248
249 249 249
246 246 246
253 253 253
248 248 248
251 251 251
244 244 244
249 249 249
250 250 250
247 247 247
253 253 253
251 251 251
250 250 250
252 252 252
248 248 248
248 248 248
249 249 249
251 251 251
248 248 248
251 251 251
249 249 249
247 247 247
247 247 247
249 249 249
243 243 243
247 247 247
248 248 248
245 245 245
248 248 248
249 249 249
249 249 249
247 247 247
252 252 252
250 250 250
244 244 244
249 249 249
250 250 250
242 242 242
243 243 243
243 243 243
247 247 247
242 242 242
250 250 250
249 249 249
252 252 252
247 247 247
246 246 246
246 246 246
250 250 250
248 248 248
251 251 251
252 252 252
251 251 251
251 251 251
249 249 249
240 240 240
250 250 250
250 250 250
251 251 251
254 254 254
252 252 252
248 248 248
251 251 251
248 248 248
250 250 250
245 245 245
250 250 250
250 250 250
247 247 247
251 251 251
244 244 244
250 250 250
249 249 249
245 245 245
250 250 250
252 252 252
249 249 249
246 246 246
253 253 253
253 253 253
247 247 247
244 244 244
251 251 251
248 248 248
250 250 250
251 251 251
248 248 248
246 246 246
244 244 244
247 247 247
249 249 249
244 244 244
247 247 247
250 250 250
250 250 250
249 249 249
249 249 249
246 246 246
249 249 249
243 243 243
245 245 245
246 246 246
250 250 250
247 247 247
245 245 245
246 246 246
247 247 247
248 248 248
248 248 248
249 249 249
243 243 243
247 247 247
249 249 249
248 248 248
249 249 249
249 249 249
251 251 251
252 252 252
253 253 253
249 249 249
249 249 249
250 250 250
245 245 245
250 250 250
249 249 249
253 253 253
249 249 249
248 248 248
251 251 251
249 249 249
250 250 250
251 251 251
251 251 251
245 245 245
243 243 243
247 247 247
248 248 248
250 250 250
250 250 250
249 249 249
250 250 250
252 252 252
247 247 247
248 248 248
244 244 244
249 249 249
252 252 252
251 251 251
249 249 249
251 251 251
248 248 248
245 245 245
247 247 247
247 247 247
246 246 246
246 246 246
250 250 250
244 244 244
251 251 251
247 247 247
249 249 249
248 248 248
248 248 248
247 247 247
252 252 252
245 245 245
249 249 249
246 246 246
250 250 250
247 247 247
253 253 253
252 252 252
251 251 251
247 247 247
245 245 245
249 249 249
