P3
64 64
255
0 0 0
0 0 0
0 0 0
0 0 0
0 0 0
0 0 0
0 0 0
0 0 0
0 0 0
0 0 0
0 0 0
0 0 0
0 0 0
0 0 0
0 0 0
0 0 0
0 0 0
0 0 0
0 0 0
0 0 0
0 0 0
0 0 0
0 0 0
0 0 0
0 0 0
0 0 0
0 0 0
0 0 0
0 0 0
0 0 0
0 0 0
0 0 0
0 0 0
0 0 0
0 0 0
0 0 0
0 0 0
0 0 0
0 0 0
0 0 0
0 0 0
0 0 0
0 0 0
0 0 0
0 0 0
0 0 0
0 0 0
0 0 0
0 0 0
0 0 0
0 0 0
0 0 0
0 0 0
0 0 0
0 0 0
0 0 0
0 0 0
0 0 0
0 0 0
0 0 0
0 0 0
0 0 0
0 0 0
0 0 0
0 0 0
0 0 0
0 0 0
0 0 0
0 0 0
0 0 0
0 0 0
0 0 0
0 0 0
0 0 0
0 0 0
0 0 0
0 0 0
0 0 0
0 0 0
0 0 0
0 0 0
0 0 0
0 0 0
0 0 0
0 0 0
0 0 0
0 0 0
0 0 0
0 0 0
0 0 0
0 0 0
0 0 0
0 0 0
0 0 0
0 0 0
0 0 0
0 0 0
0 0 0
0 0 0
0 0 0
0 0 0
0 0 0
0 0 0
0 0 0
0 0 0
0 0 0
0 0 0
0 0 0
0 0 0
0 0 0
0 0 0
0 0 0
0 0 0
0 0 0
0 0 0
0 0 0
0 0 0
0 0 0
0 0 0
0 0 0
0 0 0
0 0 0
0 0 0
0 0 0
0 0 0
0 0 0
0 0 0
0 0 0
0 0 0
0 0 0
0 0 0
0 0 0
0 0 0
0 0 0
0 0 0
0 0 0
0 0 0
0 0 0
0 0 0
0 0 0
0 0 0
0 0 0
0 0 0
0 0 0
0 0 0
0 0 0
0 0 0
0 0 0
0 0 0
0 0 0
0 0 0
0 0 0
0 0 0
0 0 0
0 0 0
0 0 0
0 0 0
0 0 0
0 0 0
0 0 0
0 0 0
0 0 0
0 0 0
0 0 0
0 0 0
0 0 0
0 0 0
0 0 0
0 0 0
0 0 0
0 0 0
0 0 0
0 0 0
0 0 0
0 0 0
0 0 0
0 0 0
0 0 0
0 0 0
0 0 0
0 0 0
0 0 0
0 0 0
0 0 0
0 0 0
0 0 0
0 0 0
0 0 0
0 0 0
0 0 0
0 0 0
0 0 0
0 0 0
0 0 0
0 0 0
0 0 0
0 0 0
0 0 0
0 0 0
0 0 0
0 0 0
0 0 0
0 0 0
0 0 0
0 0 0
0 0 0
0 0 0
0 0 0
0 0 0
0 0 0
0 0 0
0 0 0
0 0 0
0 0 0
0 0 0
0 0 0
0 0 0
0 0 0
0 0 0
0 0 0
0 0 0
0 0 0
0 0 0
0 0 0
0 0 0
0 0 0
0 0 0
0 0 0
0 0 0
0 0 0
0 0 0
0 0 0
0 0 0
0 0 0
0 0 0
0 0 0
0 0 0
0 0 0
0 0 0
0 0 0
0 0 0
0 0 0
0 0 0
0 0 0
0 0 0
0 0 0
0 0 0
0 0 0
0 0 0
0 0 0
0 0 0
0 0 0
0 0 0
0 0 0
0 0 0
0 0 0
0 0 0
0 0 0
0 0 0
0 0 0
0 0 0
0 0 0
0 0 0
0 0 0
0 0 0
0 0 0
0 0 0
0 0 0
0 0 0
0 0 0
0 0 0
0 0 0
0 0 0
0 0 0
0 0 0
0 0 0
0 0 0
0 0 0
0 0 0
0 0 0
0 0 0
0 0 0
0 0 0
0 0 0
0 0 0
0 0 0
0 0 0
0 0 0
0 0 0
0 0 0
0 0 0
0 0 0
0 0 0
0 0 0
0 0 0
0 0 0
0 0 0
0 0 0
0 0 0
0 0 0
0 0 0
0 0 0
0 0 0
0 0 0
0 0 0
0 0 0
0 0 0
0 0 0
0 0 0
0 0 0
0 0 0
0 0 0
0 0 0
0 0 0
0 0 0
0 0 0
0 0 0
0 0 0
0 0 0
0 0 0
0 0 0
0 0 0
0 0 0
0 0 0
0 0 0
0 0 0
0 0 0
0 0 0
0 0 0
0 0 0
0 0 0
0 0 0
0 0 0
0 0 0
0 0 0
0 0 0
0 0 0
0 0 0
0 0 0
0 0 0
0 0 0
0 0 0
0 0 0
0 0 0
0 0 0
0 0 0
0 0 0
0 0 0
0 0 0
0 0 0
0 0 0
0 0 0
0 0 0
0 0 0
0 0 0
0 0 0
0 0 0
0 0 0
0 0 0
0 0 0
0 0 0
0 0 0
0 0 0
0 0 0
0 0 0
0 0 0
0 0 0
0 0 0
0 0 0
0 0 0
0 0 0
0 0 0
0 0 0
0 0 0
0 0 0
0 0 0
0 0 0
0 0 0
0 0 0
0 0 0
0 0 0
0 0 0
0 0 0
0 0 0
0 0 0
0 0 0
0 0 0
0 0 0
0 0 0
0 0 0
0 0 0
0 0 0
0 0 0
0 0 0
0 0 0
0 0 0
0 0 0
0 0 0
0 0 0
0 0 0
0 0 0
0 0 0
0 0 0
0 0 0
0 0 0
0 0 0
0 0 0
0 0 0
0 0 0
0 0 0
0 0 0
0 0 0
0 0 0
0 0 0
0 0 0
0 0 0
0 0 0
0 0 0
0 0 0
0 0 0
0 0 0
0 0 0
0 0 0
0 0 0
0 0 0
0 0 0
0 0 0
0 0 0
0 0 0
0 0 0
0 0 0
0 0 0
0 0 0
0 0 0
0 0 0
0 0 0
0 0 0
0 0 0
0 0 0
0 0 0
0 0 0
0 0 0
0 0 0
0 0 0
0 0 0
0 0 0
0 0 0
0 0 0
0 0 0
0 0 0
0 0 0
0 0 0
0 0 0
0 0 0
0 0 0
0 0 0
0 0 0
0 0 0
0 0 0
0 0 0
0 0 0
0 0 0
0 0 0
0 0 0
0 0 0
0 0 0
0 0 0
0 0 0
0 0 0
0 0 0
0 0 0
0 0 0
0 0 0
0 0 0
0 0 0
0 0 0
0 0 0
0 0 0
0 0 0
0 0 0
0 0 0
0 0 0
0 0 0
0 0 0
0 0 0
0 0 0
0 0 0
0 0 0
0 0 0
0 0 0
0 0 0
0 0 0
0 0 0
0 0 0
0 0 0
0 0 0
0 0 0
0 0 0
0 0 0
0 0 0
0 0 0
0 0 0
0 0 0
0 0 0
0 0 0
0 0 0
0 0 0
0 0 0
0 0 0
0 0 0
0 0 0
0 0 0
0 0 0
0 0 0
0 0 0
0 0 0
0 0 0
0 0 0
0 0 0
0 0 0
0 0 0
0 0 0
0 0 0
0 0 0
0 0 0
0 0 0
0 0 0
0 0 0
0 0 0
0 0 0
0 0 0
0 0 0
0 0 0
0 0 0
0 0 0
0 0 0
0 0 0
0 0 0
0 0 0
0 0 0
0 0 0
0 0 0
0 0 0
0 0 0
0 0 0
0 0 0
0 0 0
0 0 0
0 0 0
0 0 0
0 0 0
0 0 0
0 0 0
0 0 0
0 0 0
0 0 0
0 0 0
0 0 0
0 0 0
0 0 0
0 0 0
0 0 0
0 0 0
0 0 0
0 0 0
0 0 0
0 0 0
0 0 0
0 0 0
0 0 0
0 0 0
0 0 0
0 0 0
0 0 0
0 0 0
0 0 0
0 0 0
0 0 0
0 0 0
0 0 0
0 0 0
0 0 0
0 0 0
0 0 0
0 0 0
0 0 0
0 0 0
0 0 0
0 0 0
0 0 0
0 0 0
0 0 0
0 0 0
0 0 0
0 0 0
0 0 0
0 0 0
0 0 0
0 0 0
0 0 0
0 0 0
0 0 0
0 0 0
0 0 0
0 0 0
0 0 0
0 0 0
0 0 0
0 0 0
0 0 0
0 0 0
0 0 0
0 0 0
0 0 0
0 0 0
0 0 0
0 0 0
0 0 0
0 0 0
0 0 0
0 0 0
0 0 0
0 0 0
0 0 0
0 0 0
0 0 0
0 0 0
0 0 0
0 0 0
0 0 0
0 0 0
0 0 0
0 0 0
0 0 0
0 0 0
0 0 0
0 0 0
0 0 0
0 0 0
0 0 0
0 0 0
0 0 0
0 0 0
0 0 0
0 0 0
0 0 0
0 0 0
0 0 0
0 0 0
0 0 0
0 0 0
0 0 0
0 0 0
0 0 0
0 0 0
0 0 0
0 0 0
0 0 0
0 0 0
0 0 0
0 0 0
0 0 0
0 0 0
0 0 0
0 0 0
0 0 0
0 0 0
0 0 0
0 0 0
0 0 0
0 0 0
0 0 0
0 0 0
0 0 0
0 0 0
0 0 0
0 0 0
0 0 0
0 0 0
0 0 0
0 0 0
0 0 0
0 0 0
0 0 0
0 0 0
0 0 0
0 0 0
0 0 0
0 0 0
0 0 0
0 0 0
0 0 0
0 0 0
0 0 0
0 0 0
0 0 0
0 0 0
0 0 0
0 0 0
0 0 0
0 0 0
0 0 0
0 0 0
0 0 0
0 0 0
0 0 0
0 0 0
0 0 0
0 0 0
0 0 0
0 0 0
0 0 0
0 0 0
0 0 0
0 0 0
0 0 0
0 0 0
0 0 0
0 0 0
0 0 0
0 0 0
0 0 0
0 0 0
0 0 0
0 0 0
0 0 0
0 0 0
0 0 0
0 0 0
0 0 0
0 0 0
0 0 0
0 0 0
0 0 0
0 0 0
0 0 0
0 0 0
0 0 0
0 0 0
0 0 0
0 0 0
0 0 0
0 0 0
0 0 0
0 0 0
0 0 0
0 0 0
0 0 0
0 0 0
0 0 0
0 0 0
0 0 0
0 0 0
0 0 0
0 0 0
0 0 0
0 0 0
0 0 0
0 0 0
0 0 0
0 0 0
0 0 0
0 0 0
0 0 0
0 0 0
0 0 0
0 0 0
0 0 0
0 0 0
0 0 0
0 0 0
0 0 0
0 0 0
0 0 0
0 0 0
0 0 0
0 0 0
0 0 0
0 0 0
0 0 0
0 0 0
0 0 0
0 0 0
0 0 0
0 0 0
0 0 0
0 0 0
0 0 0
0 0 0
0 0 0
0 0 0
0 0 0
0 0 0
0 0 0
0 0 0
0 0 0
0 0 0
0 0 0
0 0 0
0 0 0
0 0 0
0 0 0
0 0 0
0 0 0
0 0 0
0 0 0
0 0 0
0 0 0
0 0 0
0 0 0
0 0 0
0 0 0
0 0 0
0 0 0
0 0 0
0 0 0
0 0 0
0 0 0
0 0 0
0 0 0
0 0 0
0 0 0
0 0 0
0 0 0
0 0 0
0 0 0
0 0 0
0 0 0
0 0 0
0 0 0
0 0 0
0 0 0
0 0 0
0 0 0
0 0 0
0 0 0
0 0 0
0 0 0
0 0 0
0 0 0
0 0 0
0 0 0
0 0 0
0 0 0
0 0 0
0 0 0
0 0 0
0 0 0
0 0 0
0 0 0
0 0 0
0 0 0
0 0 0
0 0 0
0 0 0
0 0 0
0 0 0
0 0 0
0 0 0
0 0 0
0 0 0
0 0 0
0 0 0
0 0 0
0 0 0
0 0 0
0 0 0
0 0 0
0 0 0
0 0 0
0 0 0
0 0 0
0 0 0
0 0 0
0 0 0
0 0 0
0 0 0
0 0 0
0 0 0
0 0 0
0 0 0
0 0 0
0 0 0
0 0 0
0 0 0
0 0 0
0 0 0
0 0 0
0 0 0
0 0 0
0 0 0
0 0 0
0 0 0
0 0 0
0 0 0
0 0 0
0 0 0
0 0 0
0 0 0
0 0 0
0 0 0
0 0 0
0 0 0
0 0 0
0 0 0
0 0 0
0 0 0
0 0 0
0 0 0
0 0 0
0 0 0
0 0 0
0 0 0
0 0 0
0 0 0
0 0 0
0 0 0
0 0 0
0 0 0
0 0 0
0 0 0
0 0 0
0 0 0
0 0 0
0 0 0
0 0 0
0 0 0
0 0 0
0 0 0
0 0 0
0 0 0
0 0 0
0 0 0
0 0 0
0 0 0
0 0 0
0 0 0
0 0 0
0 0 0
0 0 0
0 0 0
0 0 0
0 0 0
0 0 0
0 0 0
0 0 0
0 0 0
0 0 0
0 0 0
0 0 0
0 0 0
0 0 0
0 0 0
0 0 0
0 0 0
0 0 0
0 0 0
0 0 0
0 0 0
0 0 0
0 0 0
0 0 0
0 0 0
0 0 0
0 0 0
0 0 0
0 0 0
0 0 0
0 0 0
0 0 0
0 0 0
0 0 0
0 0 0
0 0 0
0 0 0
0 0 0
0 0 0
0 0 0
0 0 0
0 0 0
0 0 0
0 0 0
0 0 0
0 0 0
0 0 0
0 0 0
0 0 0
0 0 0
0 0 0
0 0 0
0 0 0
0 0 0
0 0 0
0 0 0
0 0 0
0 0 0
0 0 0
0 0 0
0 0 0
0 0 0
0 0 0
0 0 0
0 0 0
0 0 0
0 0 0
0 0 0
0 0 0
0 0 0
0 0 0
0 0 0
0 0 0
0 0 0
0 0 0
0 0 0
0 0 0
0 0 0
0 0 0
0 0 0
0 0 0
0 0 0
0 0 0
0 0 0
0 0 0
0 0 0
0 0 0
0 0 0
0 0 0
0 0 0
0 0 0
0 0 0
0 0 0
0 0 0
0 0 0
0 0 0
0 0 0
0 0 0
0 0 0
0 0 0
0 0 0
0 0 0
0 0 0
0 0 0
0 0 0
0 0 0
0 0 0
0 0 0
0 0 0
0 0 0
0 0 0
0 0 0
0 0 0
0 0 0
0 0 0
0 0 0
0 0 0
0 0 0
0 0 0
0 0 0
0 0 0
0 0 0
0 0 0
0 0 0
0 0 0
0 0 0
0 0 0
0 0 0
0 0 0
0 0 0
0 0 0
0 0 0
0 0 0
0 0 0
0 0 0
0 0 0
0 0 0
0 0 0
0 0 0
0 0 0
0 0 0
0 0 0
0 0 0
0 0 0
0 0 0
0 0 0
0 0 0
0 0 0
0 0 0
0 0 0
0 0 0
0 0 0
0 0 0
0 0 0
0 0 0
0 0 0
0 0 0
0 0 0
0 0 0
0 0 0
0 0 0
0 0 0
0 0 0
0 0 0
0 0 0
0 0 0
0 0 0
0 0 0
0 0 0
0 0 0
0 0 0
0 0 0
0 0 0
0 0 0
0 0 0
0 0 0
0 0 0
0 0 0
0 0 0
0 0 0
0 0 0
0 0 0
0 0 0
0 0 0
0 0 0
0 0 0
0 0 0
0 0 0
0 0 0
0 0 0
0 0 0
0 0 0
0 0 0
0 0 0
0 0 0
0 0 0
0 0 0
0 0 0
0 0 0
0 0 0
0 0 0
0 0 0
0 0 0
0 0 0
0 0 0
0 0 0
0 0 0
0 0 0
0 0 0
0 0 0
0 0 0
0 0 0
0 0 0
0 0 0
0 0 0
0 0 0
0 0 0
0 0 0
0 0 0
0 0 0
0 0 0
0 0 0
0 0 0
0 0 0
0 0 0
0 0 0
0 0 0
0 0 0
0 0 0
0 0 0
0 0 0
0 0 0
0 0 0
0 0 0
0 0 0
0 0 0
0 0 0
0 0 0
0 0 0
0 0 0
0 0 0
0 0 0
0 0 0
0 0 0
0 0 0
0 0 0
0 0 0
0 0 0
0 0 0
0 0 0
0 0 0
0 0 0
0 0 0
0 0 0
0 0 0
0 0 0
0 0 0
0 0 0
0 0 0
0 0 0
0 0 0
0 0 0
0 0 0
0 0 0
0 0 0
0 0 0
0 0 0
0 0 0
0 0 0
0 0 0
0 0 0
0 0 0
0 0 0
0 0 0
0 0 0
0 0 0
0 0 0
0 0 0
0 0 0
0 0 0
0 0 0
0 0 0
0 0 0
0 0 0
0 0 0
0 0 0
0 0 0
0 0 0
0 0 0
0 0 0
0 0 0
0 0 0
0 0 0
0 0 0
0 0 0
0 0 0
0 0 0
0 0 0
0 0 0
0 0 0
0 0 0
0 0 0
0 0 0
0 0 0
0 0 0
0 0 0
0 0 0
0 0 0
0 0 0
0 0 0
0 0 0
0 0 0
0 0 0
0 0 0
0 0 0
0 0 0
0 0 0
0 0 0
0 0 0
0 0 0
0 0 0
0 0 0
0 0 0
0 0 0
0 0 0
0 0 0
0 0 0
0 0 0
0 0 0
0 0 0
0 0 0
0 0 0
0 0 0
0 0 0
0 0 0
0 0 0
0 0 0
0 0 0
0 0 0
0 0 0
0 0 0
0 0 0
0 0 0
0 0 0
0 0 0
0 0 0
0 0 0
0 0 0
0 0 0
0 0 0
0 0 0
0 0 0
0 0 0
0 0 0
0 0 0
0 0 0
0 0 0
0 0 0
0 0 0
0 0 0
0 0 0
0 0 0
0 0 0
0 0 0
0 0 0
0 0 0
0 0 0
0 0 0
0 0 0
0 0 0
0 0 0
0 0 0
0 0 0
0 0 0
0 0 0
0 0 0
0 0 0
0 0 0
0 0 0
0 0 0
0 0 0
0 0 0
0 0 0
0 0 0
0 0 0
0 0 0
0 0 0
0 0 0
0 0 0
0 0 0
0 0 0
0 0 0
0 0 0
0 0 0
0 0 0
0 0 0
0 0 0
0 0 0
0 0 0
0 0 0
0 0 0
0 0 0
0 0 0
0 0 0
0 0 0
0 0 0
0 0 0
0 0 0
0 0 0
0 0 0
0 0 0
0 0 0
0 0 0
0 0 0
0 0 0
0 0 0
0 0 0
0 0 0
0 0 0
0 0 0
0 0 0
0 0 0
0 0 0
0 0 0
0 0 0
0 0 0
0 0 0
0 0 0
0 0 0
0 0 0
0 0 0
0 0 0
0 0 0
0 0 0
0 0 0
0 0 0
0 0 0
0 0 0
0 0 0
0 0 0
0 0 0
0 0 0
0 0 0
0 0 0
0 0 0
0 0 0
0 0 0
0 0 0
0 0 0
0 0 0
0 0 0
0 0 0
0 0 0
0 0 0
0 0 0
0 0 0
0 0 0
0 0 0
0 0 0
0 0 0
0 0 0
0 0 0
0 0 0
0 0 0
0 0 0
0 0 0
0 0 0
0 0 0
0 0 0
0 0 0
0 0 0
0 0 0
0 0 0
0 0 0
0 0 0
0 0 0
0 0 0
0 0 0
0 0 0
0 0 0
0 0 0
0 0 0
0 0 0
0 0 0
0 0 0
0 0 0
0 0 0
0 0 0
0 0 0
0 0 0
0 0 0
0 0 0
0 0 0
0 0 0
0 0 0
0 0 0
0 0 0
0 0 0
0 0 0
0 0 0
0 0 0
0 0 0
0 0 0
0 0 0
0 0 0
0 0 0
0 0 0
0 0 0
0 0 0
0 0 0
0 0 0
0 0 0
0 0 0
0 0 0
0 0 0
0 0 0
0 0 0
0 0 0
0 0 0
0 0 0
0 0 0
0 0 0
0 0 0
0 0 0
0 0 0
0 0 0
0 0 0
0 0 0
0 0 0
0 0 0
0 0 0
0 0 0
0 0 0
0 0 0
0 0 0
0 0 0
0 0 0
0 0 0
0 0 0
0 0 0
0 0 0
0 0 0
0 0 0
0 0 0
0 0 0
0 0 0
0 0 0
0 0 0
0 0 0
0 0 0
0 0 0
0 0 0
0 0 0
0 0 0
0 0 0
0 0 0
0 0 0
0 0 0
0 0 0
0 0 0
0 0 0
0 0 0
0 0 0
0 0 0
0 0 0
0 0 0
0 0 0
0 0 0
0 0 0
0 0 0
0 0 0
0 0 0
0 0 0
0 0 0
0 0 0
0 0 0
0 0 0
0 0 0
0 0 0
0 0 0
0 0 0
0 0 0
0 0 0
0 0 0
0 0 0
0 0 0
0 0 0
0 0 0
0 0 0
0 0 0
0 0 0
0 0 0
0 0 0
0 0 0
0 0 0
0 0 0
0 0 0
0 0 0
0 0 0
0 0 0
0 0 0
0 0 0
0 0 0
0 0 0
0 0 0
0 0 0
0 0 0
0 0 0
0 0 0
0 0 0
0 0 0
0 0 0
0 0 0
0 0 0
0 0 0
0 0 0
0 0 0
0 0 0
0 0 0
0 0 0
0 0 0
0 0 0
0 0 0
0 0 0
0 0 0
0 0 0
0 0 0
0 0 0
0 0 0
0 0 0
0 0 0
0 0 0
0 0 0
0 0 0
0 0 0
0 0 0
0 0 0
0 0 0
0 0 0
0 0 0
0 0 0
0 0 0
0 0 0
31 31 31
60 60 60
59 59 59
60 60 60
30 30 30
0 0 0
0 0 0
0 0 0
0 0 0
0 0 0
0 0 0
0 0 0
0 0 0
0 0 0
0 0 0
0 0 0
0 0 0
0 0 0
0 0 0
0 0 0
0 0 0
0 0 0
0 0 0
0 0 0
0 0 0
0 0 0
0 0 0
0 0 0
0 0 0
0 0 0
0 0 0
0 0 0
0 0 0
0 0 0
0 0 0
0 0 0
0 0 0
0 0 0
0 0 0
0 0 0
0 0 0
0 0 0
0 0 0
0 0 0
0 0 0
0 0 0
0 0 0
0 0 0
0 0 0
0 0 0
0 0 0
0 0 0
0 0 0
0 0 0
0 0 0
0 0 0
0 0 0
0 0 0
0 0 0
0 0 0
0 0 0
0 0 0
87 87 87
202 202 202
237 237 237
229 229 229
231 231 231
225 225 225
229 229 229
184 184 184
84 84 84
0 0 0
0 0 0
0 0 0
0 0 0
0 0 0
0 0 0
0 0 0
0 0 0
0 0 0
0 0 0
0 0 0
0 0 0
0 0 0
0 0 0
0 0 0
0 0 0
0 0 0
0 0 0
0 0 0
0 0 0
0 0 0
0 0 0
0 0 0
0 0 0
0 0 0
0 0 0
0 0 0
0 0 0
0 0 0
0 0 0
0 0 0
0 0 0
0 0 0
0 0 0
0 0 0
0 0 0
0 0 0
46 46 46
61 61 61
61 61 61
0 0 0
0 0 0
0 0 0
0 0 0
0 0 0
0 0 0
0 0 0
0 0 0
0 0 0
0 0 0
0 0 0
0 0 0
0 0 0
28 28 28
178 178 178
220 220 220
212 212 212
214 214 214
213 213 213
213 213 213
211 211 211
207 207 207
207 207 207
208 208 208
161 161 161
12 12 12
0 0 0
0 0 0
0 0 0
0 0 0
0 0 0
0 0 0
0 0 0
0 0 0
0 0 0
0 0 0
0 0 0
0 0 0
0 0 0
0 0 0
0 0 0
0 0 0
0 0 0
0 0 0
0 0 0
0 0 0
0 0 0
45 45 45
104 104 104
122 122 122
106 106 106
29 29 29
0 0 0
0 0 0
0 0 0
0 0 0
0 0 0
0 0 0
0 0 0
67 67 67
196 196 196
227 227 227
225 225 225
222 222 222
214 214 214
115 115 115
0 0 0
0 0 0
0 0 0
0 0 0
0 0 0
0 0 0
0 0 0
0 0 0
0 0 0
0 0 0
12 12 12
189 189 189
199 199 199
192 192 192
196 196 196
192 192 192
193 193 193
195 195 195
196 196 196
193 193 193
197 197 197
193 193 193
198 198 198
153 153 153
11 11 11
0 0 0
0 0 0
0 0 0
0 0 0
0 0 0
0 0 0
0 0 0
0 0 0
0 0 0
0 0 0
0 0 0
0 0 0
0 0 0
0 0 0
0 0 0
0 0 0
0 0 0
0 0 0
12 12 12
162 162 162
216 216 216
218 218 218
216 216 216
215 215 215
223 223 223
140 140 140
13 13 13
0 0 0
0 0 0
0 0 0
0 0 0
73 73 73
207 207 207
203 203 203
200 200 200
201 201 201
203 203 203
199 199 199
202 202 202
127 127 127
0 0 0
0 0 0
0 0 0
0 0 0
0 0 0
0 0 0
0 0 0
0 0 0
0 0 0
140 140 140
182 182 182
184 184 184
181 181 181
185 185 185
178 178 178
180 180 180
179 179 179
176 176 176
181 181 181
185 185 185
181 181 181
179 179 179
182 182 182
117 117 117
0 0 0
0 0 0
0 0 0
0 0 0
0 0 0
0 0 0
0 0 0
0 0 0
0 0 0
0 0 0
0 0 0
0 0 0
0 0 0
0 0 0
0 0 0
0 0 0
0 0 0
11 11 11
154 154 154
194 194 194
192 192 192
193 193 193
193 193 193
186 186 186
184 184 184
188 188 188
157 157 157
0 0 0
0 0 0
0 0 0
20 20 20
182 182 182
182 182 182
177 177 177
182 182 182
177 177 177
182 182 182
181 181 181
174 174 174
176 176 176
76 76 76
0 0 0
0 0 0
0 0 0
0 0 0
0 0 0
0 0 0
0 0 0
39 39 39
167 167 167
169 169 169
162 162 162
163 163 163
171 171 171
170 170 170
166 166 166
170 170 170
161 161 161
162 162 162
162 162 162
167 167 167
159 159 159
174 174 174
164 164 164
32 32 32
0 0 0
0 0 0
0 0 0
0 0 0
0 0 0
0 0 0
0 0 0
0 0 0
0 0 0
0 0 0
0 0 0
0 0 0
0 0 0
0 0 0
0 0 0
0 0 0
87 87 87
174 174 174
158 158 158
171 171 171
171 171 171
164 164 164
160 160 160
159 159 159
157 157 157
159 159 159
70 70 70
0 0 0
0 0 0
98 98 98
163 163 163
159 159 159
155 155 155
165 165 165
160 160 160
163 163 163
154 154 154
139 139 139
153 153 153
134 134 134
0 0 0
0 0 0
0 0 0
0 0 0
0 0 0
0 0 0
0 0 0
82 82 82
145 145 145
148 148 148
149 149 149
149 149 149
147 147 147
147 147 147
147 147 147
148 148 148
143 143 143
158 158 158
149 149 149
156 156 156
149 149 149
150 150 150
155 155 155
72 72 72
0 0 0
0 0 0
0 0 0
0 0 0
0 0 0
0 0 0
0 0 0
0 0 0
0 0 0
0 0 0
0 0 0
0 0 0
0 0 0
0 0 0
0 0 0
0 0 0
105 105 105
142 142 142
143 143 143
132 132 132
131 131 131
140 140 140
139 139 139
132 132 132
117 117 117
117 117 117
92 92 92
0 0 0
0 0 0
103 103 103
143 143 143
140 140 140
133 133 133
129 129 129
133 133 133
131 131 131
136 136 136
132 132 132
125 125 125
130 130 130
0 0 0
0 0 0
0 0 0
0 0 0
0 0 0
0 0 0
0 0 0
93 93 93
138 138 138
135 135 135
133 133 133
135 135 135
134 134 134
137 137 137
136 136 136
138 138 138
126 126 126
137 137 137
138 138 138
137 137 137
132 132 132
132 132 132
137 137 137
106 106 106
0 0 0
0 0 0
0 0 0
0 0 0
0 0 0
0 0 0
0 0 0
0 0 0
191 191 191
191 191 191
191 191 191
191 191 191
191 191 191
191 191 191
191 191 191
191 191 191
135 135 135
116 116 116
119 119 119
120 120 120
115 115 115
110 110 110
105 105 105
94 94 94
96 96 96
87 87 87
117 117 117
191 191 191
191 191 191
131 131 131
122 122 122
124 124 124
128 128 128
113 113 113
114 114 114
115 115 115
104 104 104
111 111 111
96 96 96
97 97 97
191 191 191
191 191 191
191 191 191
191 191 191
191 191 191
191 191 191
191 191 191
129 129 129
117 117 117
117 117 117
116 116 116
126 126 126
122 122 122
124 124 124
122 122 122
115 115 115
123 123 123
121 121 121
123 123 123
122 122 122
131 131 131
119 119 119
131 131 131
139 139 139
191 191 191
191 191 191
191 191 191
191 191 191
191 191 191
191 191 191
191 191 191
191 191 191
255 255 255
255 255 255
255 255 255
255 255 255
255 255 255
255 255 255
255 255 255
255 255 255
160 160 160
93 93 93
98 98 98
92 92 92
90 90 90
79 79 79
76 76 76
72 72 72
73 73 73
63 63 63
145 145 145
255 255 255
255 255 255
137 137 137
99 99 99
97 97 97
98 98 98
102 102 102
86 86 86
90 90 90
88 88 88
83 83 83
73 73 73
83 83 83
255 255 255
255 255 255
255 255 255
255 255 255
255 255 255
255 255 255
255 255 255
151 151 151
94 94 94
98 98 98
104 104 104
108 108 108
101 101 101
108 108 108
102 102 102
106 106 106
108 108 108
106 106 106
104 104 104
107 107 107
102 102 102
111 111 111
121 121 121
171 171 171
255 255 255
255 255 255
255 255 255
255 255 255
255 255 255
255 255 255
255 255 255
255 255 255
255 255 255
255 255 255
255 255 255
255 255 255
255 255 255
254 254 254
254 254 254
254 254 254
229 229 229
77 77 77
68 68 68
67 67 67
61 61 61
56 56 56
48 48 48
42 42 42
39 39 39
51 51 51
240 240 240
253 253 253
253 253 253
208 208 208
69 69 69
84 84 84
76 76 76
80 80 80
73 73 73
71 71 71
60 60 60
50 50 50
53 53 53
142 142 142
254 254 254
254 254 254
254 254 254
253 253 253
254 254 254
253 253 253
253 253 253
186 186 186
80 80 80
86 86 86
93 93 93
97 97 97
92 92 92
95 95 95
97 97 97
87 87 87
93 93 93
94 94 94
101 101 101
93 93 93
97 97 97
98 98 98
96 96 96
203 203 203
255 255 255
255 255 255
255 255 255
254 254 254
255 255 255
255 255 255
254 254 254
255 255 255
255 255 255
255 255 255
252 252 252
253 253 253
253 253 253
251 251 251
252 252 252
251 251 251
249 249 249
204 204 204
58 58 58
44 44 44
40 40 40
36 36 36
30 30 30
27 27 27
44 44 44
191 191 191
236 236 236
235 235 235
236 236 236
236 236 236
123 123 123
50 50 50
61 61 61
57 57 57
58 58 58
47 47 47
43 43 43
34 34 34
70 70 70
232 232 232
246 246 246
245 245 245
249 249 249
247 247 247
249 249 249
249 249 249
248 248 248
250 250 250
79 79 79
68 68 68
72 72 72
79 79 79
83 83 83
75 75 75
77 77 77
75 75 75
79 79 79
77 77 77
85 85 85
78 78 78
74 74 74
79 79 79
113 113 113
254 254 254
254 254 254
254 254 254
255 255 255
254 254 254
254 254 254
254 254 254
255 255 255
255 255 255
250 250 250
249 249 249
245 245 245
241 241 241
238 238 238
233 233 233
226 226 226
216 216 216
203 203 203
184 184 184
151 151 151
58 58 58
22 22 22
16 16 16
16 16 16
38 38 38
112 112 112
129 129 129
155 155 155
176 176 176
183 183 183
194 194 194
195 195 195
102 102 102
25 25 25
34 34 34
33 33 33
26 26 26
24 24 24
52 52 52
185 185 185
204 204 204
208 208 208
222 222 222
220 220 220
229 229 229
233 233 233
235 235 235
236 236 236
235 235 235
198 198 198
47 47 47
53 53 53
59 59 59
62 62 62
63 63 63
64 64 64
65 65 65
66 66 66
66 66 66
64 64 64
62 62 62
70 70 70
72 72 72
216 216 216
250 250 250
251 251 251
252 252 252
252 252 252
253 253 253
253 253 253
254 254 254
253 253 253
254 254 254
232 232 232
232 232 232
223 223 223
220 220 220
215 215 215
210 210 210
202 202 202
183 183 183
172 172 172
165 165 165
153 153 153
156 156 156
150 150 150
159 159 159
172 172 172
180 180 180
182 182 182
186 186 186
177 177 177
177 177 177
161 161 161
151 151 151
122 122 122
102 102 102
56 56 56
26 26 26
20 20 20
20 20 20
45 45 45
85 85 85
115 115 115
141 141 141
165 165 165
175 175 175
193 193 193
199 199 199
200 200 200
210 210 210
206 206 206
200 200 200
206 206 206
141 141 141
43 43 43
46 46 46
40 40 40
46 46 46
47 47 47
55 55 55
54 54 54
48 48 48
48 48 48
49 49 49
60 60 60
205 205 205
240 240 240
243 243 243
245 245 245
248 248 248
249 249 249
248 248 248
250 250 250
250 250 250
251 251 251
250 250 250
231 231 231
232 232 232
229 229 229
228 228 228
228 228 228
222 222 222
223 223 223
222 222 222
221 221 221
221 221 221
224 224 224
215 215 215
218 218 218
215 215 215
215 215 215
212 212 212
207 207 207
200 200 200
196 196 196
193 193 193
185 185 185
171 171 171
166 166 166
151 151 151
146 146 146
149 149 149
145 145 145
149 149 149
159 159 159
172 172 172
174 174 174
182 182 182
181 181 181
190 190 190
190 190 190
196 196 196
189 189 189
184 184 184
174 174 174
159 159 159
135 135 135
124 124 124
97 97 97
39 39 39
26 26 26
31 31 31
27 27 27
35 35 35
32 32 32
31 31 31
32 32 32
85 85 85
184 184 184
208 208 208
214 214 214
227 227 227
226 226 226
233 233 233
235 235 235
233 233 233
238 238 238
242 242 242
244 244 244
247 247 247
236 236 236
237 237 237
235 235 235
232 232 232
233 233 233
236 236 236
237 237 237
231 231 231
236 236 236
233 233 233
231 231 231
228 228 228
234 234 234
231 231 231
226 226 226
226 226 226
221 221 221
227 227 227
219 219 219
218 218 218
213 213 213
215 215 215
208 208 208
213 213 213
201 201 201
210 210 210
207 207 207
207 207 207
201 201 201
209 209 209
207 207 207
203 203 203
206 206 206
204 204 204
197 197 197
198 198 198
190 190 190
182 182 182
164 164 164
159 159 159
135 135 135
102 102 102
94 94 94
63 63 63
36 36 36
26 26 26
19 19 19
18 18 18
19 19 19
34 34 34
67 67 67
112 112 112
126 126 126
154 154 154
169 169 169
188 188 188
197 197 197
207 207 207
219 219 219
222 222 222
230 230 230
230 230 230
235 235 235
240 240 240
243 243 243
241 241 241
239 239 239
241 241 241
242 242 242
246 246 246
240 240 240
236 236 236
239 239 239
236 236 236
239 239 239
235 235 235
237 237 237
233 233 233
233 233 233
233 233 233
232 232 232
228 228 228
233 233 233
232 232 232
225 225 225
222 222 222
226 226 226
223 223 223
222 222 222
226 226 226
226 226 226
224 224 224
219 219 219
225 225 225
227 227 227
224 224 224
221 221 221
218 218 218
215 215 215
213 213 213
201 201 201
201 201 201
195 195 195
188 188 188
173 173 173
159 159 159
143 143 143
135 135 135
127 127 127
109 109 109
95 95 95
87 87 87
88 88 88
90 90 90
90 90 90
109 109 109
123 123 123
130 130 130
152 152 152
164 164 164
183 183 183
185 185 185
196 196 196
207 207 207
209 209 209
219 219 219
222 222 222
231 231 231
243 243 243
243 243 243
245 245 245
246 246 246
241 241 241
244 244 244
242 242 242
239 239 239
241 241 241
241 241 241
239 239 239
243 243 243
240 240 240
241 241 241
239 239 239
240 240 240
237 237 237
233 233 233
234 234 234
238 238 238
234 234 234
241 241 241
232 232 232
235 235 235
232 232 232
233 233 233
236 236 236
231 231 231
232 232 232
229 229 229
229 229 229
229 229 229
224 224 224
216 216 216
222 222 222
219 219 219
217 217 217
207 207 207
212 212 212
207 207 207
202 202 202
194 194 194
197 197 197
186 186 186
184 184 184
181 181 181
171 171 171
172 172 172
159 159 159
154 154 154
152 152 152
159 159 159
163 163 163
158 158 158
173 173 173
175 175 175
186 186 186
194 194 194
195 195 195
200 200 200
210 210 210
219 219 219
217 217 217
222 222 222
245 245 245
245 245 245
246 246 246
244 244 244
243 243 243
243 243 243
243 243 243
242 242 242
243 243 243
241 241 241
241 241 241
240 240 240
238 238 238
239 239 239
241 241 241
241 241 241
242 242 242
238 238 238
237 237 237
239 239 239
238 238 238
239 239 239
239 239 239
238 238 238
239 239 239
234 234 234
231 231 231
237 237 237
234 234 234
234 234 234
232 232 232
232 232 232
233 233 233
229 229 229
229 229 229
226 226 226
229 229 229
226 226 226
220 220 220
221 221 221
218 218 218
216 216 216
213 213 213
210 210 210
208 208 208
208 208 208
204 204 204
200 200 200
197 197 197
200 200 200
190 190 190
195 195 195
194 194 194
199 199 199
196 196 196
205 205 205
203 203 203
197 197 197
207 207 207
213 213 213
210 210 210
216 216 216
216 216 216
220 220 220
247 247 247
243 243 243
247 247 247
243 243 243
246 246 246
243 243 243
246 246 246
242 242 242
245 245 245
241 241 241
244 244 244
245 245 245
248 248 248
240 240 240
246 246 246
241 241 241
242 242 242
238 238 238
244 244 244
240 240 240
242 242 242
240 240 240
239 239 239
240 240 240
242 242 242
239 239 239
240 240 240
237 237 237
234 234 234
238 238 238
239 239 239
239 239 239
232 232 232
232 232 232
241 241 241
230 230 230
230 230 230
236 236 236
232 232 232
229 229 229
229 229 229
226 226 226
225 225 225
219 219 219
222 222 222
226 226 226
219 219 219
212 212 212
220 220 220
217 217 217
220 220 220
217 217 217
214 214 214
216 216 216
213 213 213
214 214 214
214 214 214
217 217 217
218 218 218
218 218 218
219 219 219
224 224 224
224 224 224
223 223 223
244 244 244
246 246 246
248 248 248
246 246 246
247 247 247
245 245 245
245 245 245
245 245 245
246 246 246
242 242 242
243 243 243
244 244 244
241 241 241
246 246 246
242 242 242
243 243 243
243 243 243
244 244 244
244 244 244
244 244 244
242 242 242
239 239 239
240 240 240
242 242 242
240 240 240
241 241 241
241 241 241
233 233 233
240 240 240
237 237 237
239 239 239
236 236 236
236 236 236
238 238 238
238 238 238
236 236 236
238 238 238
234 234 234
234 234 234
232 232 232
229 229 229
230 230 230
231 231 231
230 230 230
233 233 233
226 226 226
221 221 221
228 228 228
226 226 226
227 227 227
225 225 225
221 221 221
218 218 218
221 221 221
224 224 224
224 224 224
219 219 219
229 229 229
225 225 225
225 225 225
225 225 225
228 228 228
227 227 227
229 229 229
248 248 248
247 247 247
247 247 247
246 246 246
244 244 244
247 247 247
248 248 248
247 247 247
248 248 248
245 245 245
246 246 246
246 246 246
243 243 243
247 247 247
242 242 242
245 245 245
243 243 243
243 243 243
241 241 241
243 243 243
244 244 244
244 244 244
242 242 242
245 245 245
244 244 244
240 240 240
243 243 243
242 242 242
245 245 245
240 240 240
243 243 243
239 239 239
239 239 239
240 240 240
236 236 236
237 237 237
238 238 238
237 237 237
237 237 237
235 235 235
236 236 236
236 236 236
233 233 233
236 236 236
230 230 230
234 234 234
230 230 230
233 233 233
227 227 227
233 233 233
230 230 230
231 231 231
233 233 233
231 231 231
230 230 230
231 231 231
231 231 231
233 233 233
223 223 223
228 228 228
233 233 233
232 232 232
232 232 232
230 230 230
249 249 249
250 250 250
246 246 246
247 247 247
246 246 246
248 248 248
248 248 248
247 247 247
245 245 245
246 246 246
247 247 247
247 247 247
245 245 245
246 246 246
246 246 246
245 245 245
243 243 243
244 244 244
246 246 246
246 246 246
245 245 245
242 242 242
243 243 243
246 246 246
243 243 243
243 243 243
243 243 243
244 244 244
245 245 245
243 243 243
246 246 246
240 240 240
242 242 242
244 244 244
242 242 242
243 243 243
238 238 238
241 241 241
241 241 241
240 240 240
239 239 239
238 238 238
241 241 241
236 236 236
238 238 238
239 239 239
234 234 234
238 238 238
237 237 237
238 238 238
233 233 233
237 237 237
237 237 237
236 236 236
239 239 239
233 233 233
234 234 234
231 231 231
233 233 233
235 235 235
228 228 228
236 236 236
234 234 234
232 232 232
248 248 248
248 248 248
245 245 245
247 247 247
247 247 247
247 247 247
246 246 246
248 248 248
247 247 247
249 249 249
244 244 244
246 246 246
246 246 246
247 247 247
248 248 248
246 246 246
243 243 243
246 246 246
247 247 247
246 246 246
247 247 247
244 244 244
248 248 248
245 245 245
245 245 245
247 247 247
243 243 243
245 245 245
245 245 245
243 243 243
242 242 242
242 242 242
243 243 243
243 243 243
242 242 242
242 242 242
245 245 245
239 239 239
243 243 243
241 241 241
240 240 240
239 239 239
242 242 242
241 241 241
236 236 236
240 240 240
239 239 239
238 238 238
244 244 244
240 240 240
238 238 238
236 236 236
235 235 235
237 237 237
238 238 238
235 235 235
235 235 235
237 237 237
235 235 235
241 241 241
235 235 235
234 234 234
235 235 235
237 237 237
247 247 247
246 246 246
248 248 248
247 247 247
250 250 250
246 246 246
248 248 248
249 249 249
247 247 247
249 249 249
242 242 242
246 246 246
244 244 244
249 249 249
248 248 248
249 249 249
247 247 247
247 247 247
246 246 246
248 248 248
247 247 247
247 247 247
245 245 245
246 246 246
244 244 244
244 244 244
244 244 244
246 246 246
243 243 243
245 245 245
243 243 243
246 246 246
245 245 245
244 244 244
242 242 242
245 245 245
243 243 243
243 243 243
241 241 241
242 242 242
239 239 239
244 244 244
241 241 241
243 243 243
244 244 244
240 240 240
242 242 242
244 244 244
240 240 240
236 236 236
242 242 242
241 241 241
240 240 240
239 239 239
239 239 239
240 240 240
241 241 241
240 240 240
240 240 240
239 239 239
242 242 242
242 242 242
236 236 236
238 238 238
248 248 248
249 249 249
246 246 246
249 249 249
251 251 251
249 249 249
246 246 246
246 246 246
249 249 249
247 247 247
250 250 250
246 246 246
247 247 247
248 248 248
245 245 245
250 250 250
245 245 245
243 243 243
247 247 247
247 247 247
247 247 247
246 246 246
247 247 247
246 246 246
248 248 248
247 247 247
247 247 247
245 245 245
244 244 244
245 245 245
248 248 248
245 245 245
245 245 245
245 245 245
244 244 244
242 242 242
245 245 245
242 242 242
244 244 244
240 240 240
245 245 245
243 243 243
243 243 243
248 248 248
241 241 241
240 240 240
243 243 243
244 244 244
243 243 243
243 243 243
241 241 241
243 243 243
242 242 242
243 243 243
240 240 240
240 240 240
240 240 240
241 241 241
241 241 241
241 241 241
240 240 240
238 238 238
241 241 241
239 239 239
246 246 246
249 249 249
244 244 244
247 247 247
247 247 247
248 248 248
251 251 251
247 247 247
246 246 246
247 247 247
247 247 247
246 246 246
247 247 247
247 247 247
249 249 249
248 248 248
244 244 244
246 246 246
249 249 249
245 245 245
246 246 246
245 245 245
246 246 246
246 246 246
243 243 243
248 248 248
245 245 245
248 248 248
244 244 244
244 244 244
248 248 248
243 243 243
244 244 244
246 246 246
247 247 247
248 248 248
243 243 243
245 245 245
242 242 242
244 244 244
246 246 246
245 245 245
245 245 245
243 243 243
245 245 245
243 243 243
245 245 245
246 246 246
243 243 243
242 242 242
242 242 242
242 242 242
240 240 240
241 241 241
240 240 240
243 243 243
243 243 243
241 241 241
243 243 243
240 240 240
239 239 239
242 242 242
242 242 242
243 243 243
250 250 250
249 249 249
249 249 249
248 248 248
248 248 248
243 243 243
248 248 248
249 249 249
249 249 249
249 249 249
248 248 248
247 247 247
248 248 248
248 248 248
247 247 247
248 248 248
249 249 249
249 249 249
248 248 248
246 246 246
246 246 246
246 246 246
247 247 247
248 248 248
247 247 247
245 245 245
247 247 247
246 246 246
248 248 248
245 245 245
247 247 247
248 248 248
247 247 247
245 245 245
244 244 244
244 244 244
247 247 247
244 244 244
245 245 245
245 245 245
244 244 244
243 243 243
245 245 245
243 243 243
245 245 245
244 244 244
243 243 243
244 244 244
241 241 241
242 242 242
245 245 245
246 246 246
244 244 244
244 244 244
242 242 242
244 244 244
245 245 245
244 244 244
244 244 244
244 244 244
242 242 242
243 243 243
242 242 242
243 243 243
251 251 251
248 248 248
248 248 248
250 250 250
248 248 248
248 248 248
248 248 248
250 250 250
249 249 249
248 248 248
250 250 250
249 249 249
245 245 245
249 249 249
247 247 247
249 249 249
247 247 247
247 247 247
247 247 247
246 246 246
245 245 245
245 245 245
247 247 247
248 248 248
246 246 246
249 249 249
247 247 247
246 246 246
247 247 247
245 245 245
246 246 246
247 247 247
245 245 245
243 243 243
247 247 247
245 245 245
249 249 249
245 245 245
244 244 244
250 250 250
248 248 248
245 245 245
245 245 245
246 246 246
246 246 246
247 247 247
242 242 242
246 246 246
242 242 242
245 245 245
243 243 243
245 245 245
245 245 245
242 242 242
242 242 242
244 244 244
242 242 242
244 244 244
243 243 243
243 243 243
242 242 242
243 243 243
247 247 247
242 242 242
248 248 248
250 250 250
250 250 250
247 247 247
248 248 248
247 247 247
250 250 250
250 250 250
248 248 248
248 248 248
250 250 250
249 249 249
249 249 249
247 247 247
250 250 250
249 249 249
247 247 247
248 248 248
247 247 247
247 247 247
246 246 246
247 247 247
247 247 247
248 248 248
247 247 247
246 246 246
247 247 247
246 246 246
247 247 247
246 246 246
249 249 249
245 245 245
247 247 247
246 246 246
245 245 245
245 245 245
246 246 246
245 245 245
244 244 244
246 246 246
247 247 247
244 244 244
247 247 247
246 246 246
245 245 245
246 246 246
247 247 247
247 247 247
248 248 248
246 246 246
244 244 244
245 245 245
244 244 244
245 245 245
246 246 246
245 245 245
245 245 245
244 244 244
245 245 245
244 244 244
247 247 247
245 245 245
244 244 244
245 245 245
249 249 249
250 250 250
249 249 249
249 249 249
249 249 249
248 248 248
249 249 249
247 247 247
250 250 250
248 248 248
248 248 248
249 249 249
247 247 247
249 249 249
249 249 249
250 250 250
249 249 249
251 251 251
249 249 249
247 247 247
250 250 250
246 246 246
249 249 249
248 248 248
245 245 245
248 248 248
248 248 248
249 249 249
248 248 248
248 248 248
248 248 248
247 247 247
245 245 245
245 245 245
246 246 246
247 247 247
247 247 247
244 244 244
246 246 246
248 248 248
244 244 244
247 247 247
246 246 246
248 248 248
247 247 247
249 249 249
249 249 249
248 248 248
246 246 246
245 245 245
245 245 245
245 245 245
245 245 245
244 244 244
248 248 248
246 246 246
248 248 248
245 245 245
245 245 245
246 246 246
243 243 243
244 244 244
245 245 245
247 247 247
248 248 248
250 250 250
249 249 249
250 250 250
251 251 251
251 251 251
248 248 248
247 247 247
250 250 250
250 250 250
249 249 249
249 249 249
250 250 250
249 249 249
247 247 247
247 247 247
250 250 250
247 247 247
247 247 247
247 247 247
249 249 249
247 247 247
249 249 249
247 247 247
247 247 247
246 246 246
249 249 249
248 248 248
247 247 247
247 247 247
248 248 248
247 247 247
245 245 245
248 248 248
246 246 246
246 246 246
248 248 248
250 250 250
250 250 250
245 245 245
245 245 245
247 247 247
248 248 248
248 248 248
245 245 245
246 246 246
246 246 246
248 248 248
246 246 246
246 246 246
247 247 247
248 248 248
247 247 247
242 242 242
249 249 249
246 246 246
246 246 246
245 245 245
247 247 247
247 247 247
244 244 244
248 248 248
245 245 245
245 245 245
248 248 248
249 249 249
248 248 248
249 249 249
248 248 248
248 248 248
252 252 252
247 247 247
249 249 249
246 246 246
249 249 249
249 249 249
248 248 248
249 249 249
247 247 247
250 250 250
248 248 248
249 249 249
248 248 248
248 248 248
247 247 247
248 248 248
246 246 246
247 247 247
247 247 247
247 247 247
247 247 247
248 248 248
248 248 248
247 247 247
249 249 249
246 246 246
247 247 247
248 248 248
248 248 248
246 246 246
249 249 249
246 246 246
248 248 248
247 247 247
248 248 248
247 247 247
247 247 247
246 246 246
247 247 247
249 249 249
248 248 248
248 248 248
247 247 247
246 246 246
249 249 249
245 245 245
246 246 246
246 246 246
245 245 245
246 246 246
249 249 249
245 245 245
245 245 245
248 248 248
247 247 247
247 247 247
246 246 246
244 244 244
250 250 250
248 248 248
249 249 249
249 249 249
248 248 248
250 250 250
248 248 248
249 249 249
247 247 247
251 251 251
249 249 249
249 249 249
249 249 249
247 247 247
249 249 249
248 248 248
250 250 250
249 249 249
251 251 251
248 248 248
249 249 249
247 247 247
247 247 247
248 248 248
248 248 248
250 250 250
246 246 246
248 248 248
249 249 249
247 247 247
250 250 250
250 250 250
246 246 246
246 246 246
248 248 248
248 248 248
248 248 248
249 249 249
250 250 250
248 248 248
248 248 248
249 249 249
247 247 247
248 248 248
248 248 248
247 247 247
247 247 247
248 248 248
248 248 248
248 248 248
248 248 248
247 247 247
247 247 247
247 247 247
244 244 244
244 244 244
244 244 244
249 249 249
248 248 248
249 249 249
247 247 247
244 244 244
246 246 246
247 247 247
248 248 248
249 249 249
250 250 250
252 252 252
249 249 249
248 248 248
251 251 251
250 250 250
248 248 248
249 249 249
247 247 247
251 251 251
248 248 248
249 249 249
249 249 249
250 250 250
250 250 250
250 250 250
248 248 248
247 247 247
249 249 249
248 248 248
250 250 250
250 250 250
247 247 247
248 248 248
250 250 250
247 247 247
250 250 250
248 248 248
247 247 247
247 247 247
248 248 248
244 244 244
247 247 247
246 246 246
248 248 248
248 248 248
248 248 248
247 247 247
247 247 247
247 247 247
248 248 248
248 248 248
248 248 248
247 247 247
247 247 247
246 246 246
249 249 249
247 247 247
246 246 246
249 249 249
247 247 247
248 248 248
246 246 246
248 248 248
247 247 247
247 247 247
246 246 246
247 247 247
247 247 247
245 245 245
248 248 248
246 246 246
247 247 247
250 250 250
246 246 246
249 249 249
248 248 248
247 247 247
251 251 251
251 251 251
251 251 251
249 249 249
250 250 250
249 249 249
249 249 249
249 249 249
249 249 249
249 249 249
248 248 248
249 249 249
250 250 250
248 248 248
249 249 249
248 248 248
249 249 249
248 248 248
250 250 250
247 247 247
251 251 251
248 248 248
247 247 247
250 250 250
247 247 247
247 247 247
249 249 249
248 248 248
246 246 246
246 246 246
250 250 250
249 249 249
249 249 249
248 248 248
246 246 246
249 249 249
249 249 249
248 248 248
247 247 247
247 247 247
247 247 247
247 247 247
247 247 247
247 247 247
247 247 247
245 245 245
248 248 248
246 246 246
250 250 250
249 249 249
246 246 246
248 248 248
245 245 245
246 246 246
245 245 245
245 245 245
249 249 249
249 249 249
249 249 249
251 251 251
251 251 251
249 249 249
250 250 250
248 248 248
251 251 251
249 249 249
248 248 248
249 249 249
248 248 248
250 250 250
249 249 249
248 248 248
248 248 248
250 250 250
250 250 250
248 248 248
247 247 247
250 250 250
249 249 249
248 248 248
248 248 248
246 246 246
248 248 248
250 250 250
250 250 250
249 249 249
250 250 250
251 251 251
252 252 252
248 248 248
248 248 248
251 251 251
248 248 248
248 248 248
249 249 249
248 248 248
247 247 247
248 248 248
247 247 247
247 247 247
248 248 248
250 250 250
246 246 246
249 249 249
246 246 246
247 247 247
246 246 246
247 247 247
249 249 249
248 248 248
248 248 248
246 246 246
248 248 248
244 244 244
246 246 246
248 248 248
245 245 245
247 247 247
246 246 246
246 246 246
248 248 248
249 249 249
252 252 252
249 249 249
249 249 249
250 250 250
250 250 250
250 250 250
250 250 250
248 248 248
249 249 249
249 249 249
250 250 250
249 249 249
250 250 250
250 250 250
250 250 250
248 248 248
249 249 249
248 248 248
250 250 250
251 251 251
251 251 251
247 247 247
248 248 248
249 249 249
249 249 249
248 248 248
250 250 250
249 249 249
250 250 250
249 249 249
248 248 248
249 249 249
248 248 248
250 250 250
248 248 248
249 249 249
248 248 248
247 247 247
247 247 247
248 248 248
248 248 248
246 246 246
247 247 247
247 247 247
248 248 248
249 249 249
247 247 247
249 249 249
248 248 248
250 250 250
249 249 249
247 247 247
247 247 247
247 247 247
248 248 248
247 247 247
247 247 247
247 247 247
248 248 248
244 244 244
247 247 247
250 250 250
248 248 248
248 248 248
251 251 251
251 251 251
249 249 249
251 251 251
250 250 250
251 251 251
249 249 249
249 249 249
250 250 250
248 248 248
250 250 250
248 248 248
247 247 247
250 250 250
251 251 251
249 249 249
250 250 250
246 246 246
248 248 248
251 251 251
248 248 248
251 251 251
249 249 249
248 248 248
250 250 250
250 250 250
247 247 247
250 250 250
247 247 247
250 250 250
248 248 248
249 249 249
250 250 250
248 248 248
249 249 249
251 251 251
250 250 250
248 248 248
252 252 252
249 249 249
247 247 247
248 248 248
249 249 249
248 248 248
248 248 248
248 248 248
249 249 249
249 249 249
245 245 245
247 247 247
249 249 249
247 247 247
248 248 248
247 247 247
248 248 248
248 248 248
249 249 249
248 248 248
246 246 246
247 247 247
247 247 247
248 248 248
246 246 246
249 249 249
249 249 249
250 250 250
252 252 252
250 250 250
249 249 249
251 251 251
249 249 249
249 249 249
250 250 250
251 251 251
251 251 251
250 250 250
248 248 248
251 251 251
251 251 251
250 250 250
247 247 247
248 248 248
250 250 250
249 249 249
248 248 248
248 248 248
248 248 248
248 248 248
250 250 250
248 248 248
247 247 247
250 250 250
248 248 248
249 249 249
248 248 248
249 249 249
249 249 249
249 249 249
249 249 249
250 250 250
250 250 250
250 250 250
250 250 250
245 245 245
250 250 250
248 248 248
250 250 250
248 248 248
249 249 249
250 250 250
247 247 247
249 249 249
247 247 247
248 248 248
246 246 246
248 248 248
248 248 248
246 246 246
250 250 250
250 250 250
247 247 247
248 248 248
247 247 247
247 247 247
249 249 249
250 250 250
249 249 249
247 247 247
